M48
; DRILL file {KiCad 5.1.10} date Fri Dec 17 17:44:38 2021
; FORMAT={-:-/ absolute / metric / decimal}
; #@! TF.CreationDate,2021-12-17T17:44:38+03:00
; #@! TF.GenerationSoftware,Kicad,Pcbnew,5.1.10
; #@! TF.FileFunction,Plated,1,2,PTH
FMAT,2
METRIC
T1C0.400
T2C0.600
T3C0.840
T4C1.000
T5C1.016
T6C1.270
T7C1.300
T8C3.200
%
G90
G05
T1
X113.538Y-51.816
X113.538Y-53.816
X113.538Y-55.816
X115.538Y-51.816
X115.538Y-53.816
X115.538Y-55.816
X117.538Y-51.816
X117.538Y-53.816
X117.538Y-55.816
X119.538Y-51.816
X119.538Y-53.816
X119.538Y-55.816
T2
X73.934Y-53.086
X76.434Y-53.086
X135.636Y-50.82
X135.636Y-53.32
X135.636Y-58.44
X135.636Y-60.94
T3
X82.804Y-54.864
X82.804Y-56.134
X82.804Y-57.404
T5
X73.152Y-58.166
X73.152Y-60.706
X100.33Y-54.864
X100.33Y-57.404
X140.462Y-49.53
X141.986Y-55.626
X141.986Y-58.166
X143.002Y-49.53
T6
X108.204Y-53.594
X108.204Y-56.134
X108.204Y-58.674
T7
X148.844Y-54.61
X148.844Y-58.928
T8
X125.984Y-56.134
T4
X62.738Y-54.626G85X62.738Y-56.626
G05
X64.738Y-60.326G85X66.738Y-60.326
G05
X68.738Y-54.376G85X68.738Y-56.876
G05
T0
M30
