G04 #@! TF.GenerationSoftware,KiCad,Pcbnew,5.1.10*
G04 #@! TF.CreationDate,2021-12-17T17:44:36+03:00*
G04 #@! TF.ProjectId,ripple_cancellation,72697070-6c65-45f6-9361-6e63656c6c61,rev?*
G04 #@! TF.SameCoordinates,Original*
G04 #@! TF.FileFunction,Paste,Top*
G04 #@! TF.FilePolarity,Positive*
%FSLAX46Y46*%
G04 Gerber Fmt 4.6, Leading zero omitted, Abs format (unit mm)*
G04 Created by KiCad (PCBNEW 5.1.10) date 2021-12-17 17:44:36*
%MOMM*%
%LPD*%
G01*
G04 APERTURE LIST*
%ADD10C,0.010000*%
%ADD11R,1.905000X2.997200*%
%ADD12R,0.800000X0.800000*%
%ADD13R,1.820000X1.440000*%
%ADD14R,1.440000X1.820000*%
G04 APERTURE END LIST*
D10*
G36*
X91603000Y-53177000D02*
G01*
X92903000Y-53177000D01*
X92903000Y-55287000D01*
X91603000Y-55287000D01*
X91603000Y-53177000D01*
G37*
X91603000Y-53177000D02*
X92903000Y-53177000D01*
X92903000Y-55287000D01*
X91603000Y-55287000D01*
X91603000Y-53177000D01*
G36*
X93533000Y-53177000D02*
G01*
X94833000Y-53177000D01*
X94833000Y-55287000D01*
X93533000Y-55287000D01*
X93533000Y-53177000D01*
G37*
X93533000Y-53177000D02*
X94833000Y-53177000D01*
X94833000Y-55287000D01*
X93533000Y-55287000D01*
X93533000Y-53177000D01*
G36*
X91603000Y-50437000D02*
G01*
X92903000Y-50437000D01*
X92903000Y-52547000D01*
X91603000Y-52547000D01*
X91603000Y-50437000D01*
G37*
X91603000Y-50437000D02*
X92903000Y-50437000D01*
X92903000Y-52547000D01*
X91603000Y-52547000D01*
X91603000Y-50437000D01*
G36*
X93507600Y-50462400D02*
G01*
X94807600Y-50462400D01*
X94807600Y-52572400D01*
X93507600Y-52572400D01*
X93507600Y-50462400D01*
G37*
X93507600Y-50462400D02*
X94807600Y-50462400D01*
X94807600Y-52572400D01*
X93507600Y-52572400D01*
X93507600Y-50462400D01*
D11*
X95431800Y-60020000D03*
X90978800Y-60045400D03*
D12*
X140970000Y-52820000D03*
X140970000Y-51320000D03*
D13*
X145542000Y-51496000D03*
X145542000Y-54168000D03*
D12*
X86868000Y-56122000D03*
X86868000Y-54622000D03*
D13*
X145288000Y-60010000D03*
X145288000Y-57338000D03*
D14*
X101026000Y-60452000D03*
X103698000Y-60452000D03*
D13*
X103378000Y-56962000D03*
X103378000Y-54290000D03*
X86868000Y-61280000D03*
X86868000Y-58608000D03*
X76708000Y-60518000D03*
X76708000Y-57846000D03*
M02*
