G04 #@! TF.GenerationSoftware,KiCad,Pcbnew,5.1.10*
G04 #@! TF.CreationDate,2021-12-17T17:44:36+03:00*
G04 #@! TF.ProjectId,ripple_cancellation,72697070-6c65-45f6-9361-6e63656c6c61,rev?*
G04 #@! TF.SameCoordinates,Original*
G04 #@! TF.FileFunction,Copper,L1,Top*
G04 #@! TF.FilePolarity,Positive*
%FSLAX46Y46*%
G04 Gerber Fmt 4.6, Leading zero omitted, Abs format (unit mm)*
G04 Created by KiCad (PCBNEW 5.1.10) date 2021-12-17 17:44:36*
%MOMM*%
%LPD*%
G01*
G04 APERTURE LIST*
G04 #@! TA.AperFunction,ComponentPad*
%ADD10O,4.064000X2.032000*%
G04 #@! TD*
G04 #@! TA.AperFunction,ComponentPad*
%ADD11C,7.620000*%
G04 #@! TD*
G04 #@! TA.AperFunction,SMDPad,CuDef*
%ADD12R,1.905000X2.997200*%
G04 #@! TD*
G04 #@! TA.AperFunction,SMDPad,CuDef*
%ADD13R,5.791200X6.197600*%
G04 #@! TD*
G04 #@! TA.AperFunction,SMDPad,CuDef*
%ADD14R,0.800000X0.800000*%
G04 #@! TD*
G04 #@! TA.AperFunction,ComponentPad*
%ADD15O,2.080000X1.040000*%
G04 #@! TD*
G04 #@! TA.AperFunction,SMDPad,CuDef*
%ADD16R,1.820000X1.440000*%
G04 #@! TD*
G04 #@! TA.AperFunction,ComponentPad*
%ADD17R,3.000000X3.000000*%
G04 #@! TD*
G04 #@! TA.AperFunction,ComponentPad*
%ADD18R,1.778000X1.778000*%
G04 #@! TD*
G04 #@! TA.AperFunction,ComponentPad*
%ADD19O,4.000000X2.000000*%
G04 #@! TD*
G04 #@! TA.AperFunction,ComponentPad*
%ADD20O,2.200000X4.400000*%
G04 #@! TD*
G04 #@! TA.AperFunction,ComponentPad*
%ADD21O,2.000000X4.000000*%
G04 #@! TD*
G04 #@! TA.AperFunction,SMDPad,CuDef*
%ADD22R,1.440000X1.820000*%
G04 #@! TD*
G04 #@! TA.AperFunction,ComponentPad*
%ADD23R,1.100000X1.100000*%
G04 #@! TD*
G04 #@! TA.AperFunction,ComponentPad*
%ADD24C,1.100000*%
G04 #@! TD*
G04 #@! TA.AperFunction,ViaPad*
%ADD25C,0.800000*%
G04 #@! TD*
G04 #@! TA.AperFunction,Conductor*
%ADD26C,0.700000*%
G04 #@! TD*
G04 #@! TA.AperFunction,Conductor*
%ADD27C,0.300000*%
G04 #@! TD*
G04 #@! TA.AperFunction,Conductor*
%ADD28C,1.000000*%
G04 #@! TD*
G04 #@! TA.AperFunction,Conductor*
%ADD29C,0.250000*%
G04 #@! TD*
G04 #@! TA.AperFunction,Conductor*
%ADD30C,0.254000*%
G04 #@! TD*
G04 #@! TA.AperFunction,Conductor*
%ADD31C,0.100000*%
G04 #@! TD*
G04 APERTURE END LIST*
D10*
X108204000Y-53594000D03*
X108204000Y-56134000D03*
X108204000Y-58674000D03*
D11*
X125984000Y-56134000D03*
D12*
X95431800Y-60020000D03*
X90978800Y-60045400D03*
D13*
X93218000Y-52862000D03*
D14*
X140970000Y-52820000D03*
X140970000Y-51320000D03*
D15*
X82804000Y-57404000D03*
X82804000Y-56134000D03*
X82804000Y-54864000D03*
G04 #@! TA.AperFunction,ComponentPad*
G36*
G01*
X142113000Y-49530000D02*
X142113000Y-49530000D01*
G75*
G02*
X143002000Y-48641000I889000J0D01*
G01*
X143002000Y-48641000D01*
G75*
G02*
X143891000Y-49530000I0J-889000D01*
G01*
X143891000Y-49530000D01*
G75*
G02*
X143002000Y-50419000I-889000J0D01*
G01*
X143002000Y-50419000D01*
G75*
G02*
X142113000Y-49530000I0J889000D01*
G01*
G37*
G04 #@! TD.AperFunction*
G04 #@! TA.AperFunction,ComponentPad*
G36*
G01*
X139573000Y-49530000D02*
X139573000Y-49530000D01*
G75*
G02*
X140462000Y-48641000I889000J0D01*
G01*
X140462000Y-48641000D01*
G75*
G02*
X141351000Y-49530000I0J-889000D01*
G01*
X141351000Y-49530000D01*
G75*
G02*
X140462000Y-50419000I-889000J0D01*
G01*
X140462000Y-50419000D01*
G75*
G02*
X139573000Y-49530000I0J889000D01*
G01*
G37*
G04 #@! TD.AperFunction*
D16*
X145542000Y-51496000D03*
X145542000Y-54168000D03*
G04 #@! TA.AperFunction,ComponentPad*
G36*
G01*
X149594000Y-56110000D02*
X148094000Y-56110000D01*
G75*
G02*
X147344000Y-55360000I0J750000D01*
G01*
X147344000Y-53860000D01*
G75*
G02*
X148094000Y-53110000I750000J0D01*
G01*
X149594000Y-53110000D01*
G75*
G02*
X150344000Y-53860000I0J-750000D01*
G01*
X150344000Y-55360000D01*
G75*
G02*
X149594000Y-56110000I-750000J0D01*
G01*
G37*
G04 #@! TD.AperFunction*
D17*
X148844000Y-58928000D03*
D14*
X86868000Y-56122000D03*
X86868000Y-54622000D03*
G04 #@! TA.AperFunction,ComponentPad*
G36*
G01*
X141986000Y-56515000D02*
X141986000Y-56515000D01*
G75*
G02*
X141097000Y-55626000I0J889000D01*
G01*
X141097000Y-55626000D01*
G75*
G02*
X141986000Y-54737000I889000J0D01*
G01*
X141986000Y-54737000D01*
G75*
G02*
X142875000Y-55626000I0J-889000D01*
G01*
X142875000Y-55626000D01*
G75*
G02*
X141986000Y-56515000I-889000J0D01*
G01*
G37*
G04 #@! TD.AperFunction*
D18*
X141986000Y-58166000D03*
G04 #@! TA.AperFunction,ComponentPad*
G36*
G01*
X100330000Y-55753000D02*
X100330000Y-55753000D01*
G75*
G02*
X99441000Y-54864000I0J889000D01*
G01*
X99441000Y-54864000D01*
G75*
G02*
X100330000Y-53975000I889000J0D01*
G01*
X100330000Y-53975000D01*
G75*
G02*
X101219000Y-54864000I0J-889000D01*
G01*
X101219000Y-54864000D01*
G75*
G02*
X100330000Y-55753000I-889000J0D01*
G01*
G37*
G04 #@! TD.AperFunction*
X100330000Y-57404000D03*
G04 #@! TA.AperFunction,ComponentPad*
G36*
G01*
X73152000Y-59055000D02*
X73152000Y-59055000D01*
G75*
G02*
X72263000Y-58166000I0J889000D01*
G01*
X72263000Y-58166000D01*
G75*
G02*
X73152000Y-57277000I889000J0D01*
G01*
X73152000Y-57277000D01*
G75*
G02*
X74041000Y-58166000I0J-889000D01*
G01*
X74041000Y-58166000D01*
G75*
G02*
X73152000Y-59055000I-889000J0D01*
G01*
G37*
G04 #@! TD.AperFunction*
X73152000Y-60706000D03*
D19*
X65738000Y-60326000D03*
D20*
X68738000Y-55626000D03*
D21*
X62738000Y-55626000D03*
D16*
X145288000Y-60010000D03*
X145288000Y-57338000D03*
D22*
X101026000Y-60452000D03*
X103698000Y-60452000D03*
D23*
X135636000Y-50820000D03*
D24*
X135636000Y-53320000D03*
D23*
X135636000Y-60940000D03*
D24*
X135636000Y-58440000D03*
D16*
X103378000Y-56962000D03*
X103378000Y-54290000D03*
X86868000Y-61280000D03*
X86868000Y-58608000D03*
X76708000Y-60518000D03*
X76708000Y-57846000D03*
D23*
X76434000Y-53086000D03*
D24*
X73934000Y-53086000D03*
D25*
X113538000Y-51816000D03*
X115538000Y-51816000D03*
X117538000Y-51816000D03*
X119538000Y-51816000D03*
X113538000Y-53816000D03*
X115538000Y-53816000D03*
X117538000Y-53816000D03*
X119538000Y-53816000D03*
X113538000Y-55816000D03*
X115538000Y-55816000D03*
X117538000Y-55816000D03*
X119538000Y-55816000D03*
D26*
X90978800Y-60045400D02*
X90271400Y-60045400D01*
X88834000Y-58608000D02*
X86868000Y-58608000D01*
X90271400Y-60045400D02*
X88834000Y-58608000D01*
D27*
X86856000Y-56134000D02*
X86868000Y-56122000D01*
X82804000Y-56134000D02*
X86856000Y-56134000D01*
X86868000Y-56122000D02*
X86868000Y-58608000D01*
D26*
X99440999Y-54864000D02*
X98044000Y-56260999D01*
X100330000Y-54864000D02*
X99440999Y-54864000D01*
X98044000Y-57407800D02*
X95431800Y-60020000D01*
X98044000Y-56260999D02*
X98044000Y-57407800D01*
D28*
X106426000Y-60452000D02*
X108204000Y-58674000D01*
X103698000Y-60452000D02*
X106426000Y-60452000D01*
D26*
X147894000Y-53660000D02*
X148844000Y-54610000D01*
D29*
X140970000Y-50038000D02*
X140462000Y-49530000D01*
X140970000Y-51320000D02*
X140970000Y-50038000D01*
D30*
X97078800Y-56109023D02*
X96731859Y-56110179D01*
X96739412Y-56085282D01*
X96751672Y-55960800D01*
X96748600Y-53243750D01*
X96589850Y-53085000D01*
X93441000Y-53085000D01*
X93441000Y-53105000D01*
X92995000Y-53105000D01*
X92995000Y-53085000D01*
X89846150Y-53085000D01*
X89687400Y-53243750D01*
X89684328Y-55960800D01*
X89696588Y-56085282D01*
X89711239Y-56133581D01*
X89629434Y-56133854D01*
X88140116Y-54967222D01*
X88119107Y-54953864D01*
X88095895Y-54944862D01*
X88071373Y-54940561D01*
X88056283Y-54940320D01*
X87848600Y-54949350D01*
X87744250Y-54845000D01*
X87091000Y-54845000D01*
X87091000Y-54865000D01*
X86645000Y-54865000D01*
X86645000Y-54845000D01*
X85991750Y-54845000D01*
X85833000Y-55003750D01*
X85829928Y-55022000D01*
X85836320Y-55086898D01*
X85130762Y-55194265D01*
X84368050Y-55199418D01*
X84294971Y-55087000D01*
X83457045Y-55087000D01*
X83375821Y-55079000D01*
X82232179Y-55079000D01*
X82150955Y-55087000D01*
X81313029Y-55087000D01*
X81199569Y-55261537D01*
X81199589Y-55267754D01*
X80482165Y-55478761D01*
X80459084Y-55488093D01*
X80438267Y-55501749D01*
X80420514Y-55519203D01*
X80409731Y-55534216D01*
X78313297Y-58953400D01*
X78121532Y-58953400D01*
X78148537Y-58920494D01*
X78207502Y-58810180D01*
X78243812Y-58690482D01*
X78256072Y-58566000D01*
X78253000Y-58227750D01*
X78094250Y-58069000D01*
X76931000Y-58069000D01*
X76931000Y-58089000D01*
X76485000Y-58089000D01*
X76485000Y-58069000D01*
X75321750Y-58069000D01*
X75163000Y-58227750D01*
X75159928Y-58566000D01*
X75172188Y-58690482D01*
X75208498Y-58810180D01*
X75267463Y-58920494D01*
X75331179Y-58998132D01*
X74651263Y-59283259D01*
X74635396Y-59283047D01*
X74666812Y-59179482D01*
X74679072Y-59055000D01*
X74676000Y-58547750D01*
X74517250Y-58389000D01*
X73375000Y-58389000D01*
X73375000Y-58409000D01*
X72929000Y-58409000D01*
X72929000Y-58389000D01*
X71786750Y-58389000D01*
X71628000Y-58547750D01*
X71624928Y-59055000D01*
X71637188Y-59179482D01*
X71656556Y-59243329D01*
X70877235Y-59232938D01*
X68599469Y-58857482D01*
X66294000Y-57459485D01*
X66294000Y-55849000D01*
X67003000Y-55849000D01*
X67003000Y-56949000D01*
X67079843Y-57283197D01*
X67220408Y-57595981D01*
X67419293Y-57875332D01*
X67668855Y-58110515D01*
X67959504Y-58292492D01*
X68248583Y-58390541D01*
X68515000Y-58286396D01*
X68515000Y-55849000D01*
X68961000Y-55849000D01*
X68961000Y-58286396D01*
X69227417Y-58390541D01*
X69516496Y-58292492D01*
X69807145Y-58110515D01*
X70056707Y-57875332D01*
X70255592Y-57595981D01*
X70396157Y-57283197D01*
X70397581Y-57277000D01*
X71624928Y-57277000D01*
X71628000Y-57784250D01*
X71786750Y-57943000D01*
X72929000Y-57943000D01*
X72929000Y-56800750D01*
X73375000Y-56800750D01*
X73375000Y-57943000D01*
X74517250Y-57943000D01*
X74676000Y-57784250D01*
X74679072Y-57277000D01*
X74666812Y-57152518D01*
X74658768Y-57126000D01*
X75159928Y-57126000D01*
X75163000Y-57464250D01*
X75321750Y-57623000D01*
X76485000Y-57623000D01*
X76485000Y-56649750D01*
X76931000Y-56649750D01*
X76931000Y-57623000D01*
X78094250Y-57623000D01*
X78253000Y-57464250D01*
X78256072Y-57126000D01*
X78243812Y-57001518D01*
X78207502Y-56881820D01*
X78148537Y-56771506D01*
X78069185Y-56674815D01*
X77972494Y-56595463D01*
X77862180Y-56536498D01*
X77742482Y-56500188D01*
X77618000Y-56487928D01*
X77089750Y-56491000D01*
X76931000Y-56649750D01*
X76485000Y-56649750D01*
X76326250Y-56491000D01*
X75798000Y-56487928D01*
X75673518Y-56500188D01*
X75553820Y-56536498D01*
X75443506Y-56595463D01*
X75346815Y-56674815D01*
X75267463Y-56771506D01*
X75208498Y-56881820D01*
X75172188Y-57001518D01*
X75159928Y-57126000D01*
X74658768Y-57126000D01*
X74630502Y-57032820D01*
X74571537Y-56922506D01*
X74492185Y-56825815D01*
X74395494Y-56746463D01*
X74285180Y-56687498D01*
X74165482Y-56651188D01*
X74041000Y-56638928D01*
X73533750Y-56642000D01*
X73375000Y-56800750D01*
X72929000Y-56800750D01*
X72770250Y-56642000D01*
X72263000Y-56638928D01*
X72138518Y-56651188D01*
X72018820Y-56687498D01*
X71908506Y-56746463D01*
X71811815Y-56825815D01*
X71732463Y-56922506D01*
X71673498Y-57032820D01*
X71637188Y-57152518D01*
X71624928Y-57277000D01*
X70397581Y-57277000D01*
X70473000Y-56949000D01*
X70473000Y-55849000D01*
X68961000Y-55849000D01*
X68515000Y-55849000D01*
X67003000Y-55849000D01*
X66294000Y-55849000D01*
X66294000Y-54303000D01*
X67003000Y-54303000D01*
X67003000Y-55403000D01*
X68515000Y-55403000D01*
X68515000Y-52965604D01*
X68961000Y-52965604D01*
X68961000Y-55403000D01*
X70473000Y-55403000D01*
X70473000Y-54466463D01*
X81199569Y-54466463D01*
X81313029Y-54641000D01*
X82581000Y-54641000D01*
X82581000Y-53709000D01*
X83027000Y-53709000D01*
X83027000Y-54641000D01*
X84294971Y-54641000D01*
X84408431Y-54466463D01*
X84408240Y-54407734D01*
X84307616Y-54222000D01*
X85829928Y-54222000D01*
X85833000Y-54240250D01*
X85991750Y-54399000D01*
X86645000Y-54399000D01*
X86645000Y-53745750D01*
X87091000Y-53745750D01*
X87091000Y-54399000D01*
X87744250Y-54399000D01*
X87903000Y-54240250D01*
X87906072Y-54222000D01*
X87893812Y-54097518D01*
X87857502Y-53977820D01*
X87798537Y-53867506D01*
X87719185Y-53770815D01*
X87622494Y-53691463D01*
X87512180Y-53632498D01*
X87392482Y-53596188D01*
X87268000Y-53583928D01*
X87249750Y-53587000D01*
X87091000Y-53745750D01*
X86645000Y-53745750D01*
X86486250Y-53587000D01*
X86468000Y-53583928D01*
X86343518Y-53596188D01*
X86223820Y-53632498D01*
X86113506Y-53691463D01*
X86016815Y-53770815D01*
X85937463Y-53867506D01*
X85878498Y-53977820D01*
X85842188Y-54097518D01*
X85829928Y-54222000D01*
X84307616Y-54222000D01*
X84298393Y-54204976D01*
X84151101Y-54027544D01*
X83972024Y-53882257D01*
X83768044Y-53774698D01*
X83547000Y-53709000D01*
X83027000Y-53709000D01*
X82581000Y-53709000D01*
X82061000Y-53709000D01*
X81839956Y-53774698D01*
X81635976Y-53882257D01*
X81456899Y-54027544D01*
X81309607Y-54204976D01*
X81199760Y-54407734D01*
X81199569Y-54466463D01*
X70473000Y-54466463D01*
X70473000Y-54303000D01*
X70396157Y-53968803D01*
X70390479Y-53956167D01*
X73379203Y-53956167D01*
X73426898Y-54163356D01*
X73646824Y-54241586D01*
X73877786Y-54275407D01*
X74110908Y-54263519D01*
X74337232Y-54206381D01*
X74441102Y-54163356D01*
X74488797Y-53956167D01*
X73934000Y-53401370D01*
X73379203Y-53956167D01*
X70390479Y-53956167D01*
X70255592Y-53656019D01*
X70056707Y-53376668D01*
X69807145Y-53141485D01*
X69628743Y-53029786D01*
X72744593Y-53029786D01*
X72756481Y-53262908D01*
X72813619Y-53489232D01*
X72856644Y-53593102D01*
X73063833Y-53640797D01*
X73618630Y-53086000D01*
X74249370Y-53086000D01*
X74804167Y-53640797D01*
X75011356Y-53593102D01*
X75089586Y-53373176D01*
X75123407Y-53142214D01*
X75111519Y-52909092D01*
X75054381Y-52682768D01*
X75011356Y-52578898D01*
X74825006Y-52536000D01*
X75346412Y-52536000D01*
X75346412Y-53636000D01*
X75356742Y-53740878D01*
X75387333Y-53841726D01*
X75437012Y-53934668D01*
X75503868Y-54016132D01*
X75585332Y-54082988D01*
X75678274Y-54132667D01*
X75779122Y-54163258D01*
X75884000Y-54173588D01*
X76984000Y-54173588D01*
X77088878Y-54163258D01*
X77189726Y-54132667D01*
X77282668Y-54082988D01*
X77364132Y-54016132D01*
X77430988Y-53934668D01*
X77480667Y-53841726D01*
X77511258Y-53740878D01*
X77521588Y-53636000D01*
X77521588Y-52536000D01*
X77511258Y-52431122D01*
X77480667Y-52330274D01*
X77430988Y-52237332D01*
X77364132Y-52155868D01*
X77282668Y-52089012D01*
X77189726Y-52039333D01*
X77088878Y-52008742D01*
X76984000Y-51998412D01*
X75884000Y-51998412D01*
X75779122Y-52008742D01*
X75678274Y-52039333D01*
X75585332Y-52089012D01*
X75503868Y-52155868D01*
X75437012Y-52237332D01*
X75387333Y-52330274D01*
X75356742Y-52431122D01*
X75346412Y-52536000D01*
X74825006Y-52536000D01*
X74804167Y-52531203D01*
X74249370Y-53086000D01*
X73618630Y-53086000D01*
X73063833Y-52531203D01*
X72856644Y-52578898D01*
X72778414Y-52798824D01*
X72744593Y-53029786D01*
X69628743Y-53029786D01*
X69516496Y-52959508D01*
X69227417Y-52861459D01*
X68961000Y-52965604D01*
X68515000Y-52965604D01*
X68248583Y-52861459D01*
X67959504Y-52959508D01*
X67668855Y-53141485D01*
X67419293Y-53376668D01*
X67220408Y-53656019D01*
X67079843Y-53968803D01*
X67003000Y-54303000D01*
X66294000Y-54303000D01*
X66294000Y-52215833D01*
X73379203Y-52215833D01*
X73934000Y-52770630D01*
X74488797Y-52215833D01*
X74441102Y-52008644D01*
X74221176Y-51930414D01*
X73990214Y-51896593D01*
X73757092Y-51908481D01*
X73530768Y-51965619D01*
X73426898Y-52008644D01*
X73379203Y-52215833D01*
X66294000Y-52215833D01*
X66294000Y-49276000D01*
X79019577Y-49276000D01*
X89933673Y-49260757D01*
X89871215Y-49312015D01*
X89791863Y-49408706D01*
X89732898Y-49519020D01*
X89696588Y-49638718D01*
X89684328Y-49763200D01*
X89687400Y-52480250D01*
X89846150Y-52639000D01*
X92995000Y-52639000D01*
X92995000Y-52619000D01*
X93441000Y-52619000D01*
X93441000Y-52639000D01*
X96589850Y-52639000D01*
X96748600Y-52480250D01*
X96751672Y-49763200D01*
X96739412Y-49638718D01*
X96703102Y-49519020D01*
X96644137Y-49408706D01*
X96564785Y-49312015D01*
X96491167Y-49251599D01*
X97078800Y-49250778D01*
X97078800Y-56109023D01*
G04 #@! TA.AperFunction,Conductor*
D31*
G36*
X97078800Y-56109023D02*
G01*
X96731859Y-56110179D01*
X96739412Y-56085282D01*
X96751672Y-55960800D01*
X96748600Y-53243750D01*
X96589850Y-53085000D01*
X93441000Y-53085000D01*
X93441000Y-53105000D01*
X92995000Y-53105000D01*
X92995000Y-53085000D01*
X89846150Y-53085000D01*
X89687400Y-53243750D01*
X89684328Y-55960800D01*
X89696588Y-56085282D01*
X89711239Y-56133581D01*
X89629434Y-56133854D01*
X88140116Y-54967222D01*
X88119107Y-54953864D01*
X88095895Y-54944862D01*
X88071373Y-54940561D01*
X88056283Y-54940320D01*
X87848600Y-54949350D01*
X87744250Y-54845000D01*
X87091000Y-54845000D01*
X87091000Y-54865000D01*
X86645000Y-54865000D01*
X86645000Y-54845000D01*
X85991750Y-54845000D01*
X85833000Y-55003750D01*
X85829928Y-55022000D01*
X85836320Y-55086898D01*
X85130762Y-55194265D01*
X84368050Y-55199418D01*
X84294971Y-55087000D01*
X83457045Y-55087000D01*
X83375821Y-55079000D01*
X82232179Y-55079000D01*
X82150955Y-55087000D01*
X81313029Y-55087000D01*
X81199569Y-55261537D01*
X81199589Y-55267754D01*
X80482165Y-55478761D01*
X80459084Y-55488093D01*
X80438267Y-55501749D01*
X80420514Y-55519203D01*
X80409731Y-55534216D01*
X78313297Y-58953400D01*
X78121532Y-58953400D01*
X78148537Y-58920494D01*
X78207502Y-58810180D01*
X78243812Y-58690482D01*
X78256072Y-58566000D01*
X78253000Y-58227750D01*
X78094250Y-58069000D01*
X76931000Y-58069000D01*
X76931000Y-58089000D01*
X76485000Y-58089000D01*
X76485000Y-58069000D01*
X75321750Y-58069000D01*
X75163000Y-58227750D01*
X75159928Y-58566000D01*
X75172188Y-58690482D01*
X75208498Y-58810180D01*
X75267463Y-58920494D01*
X75331179Y-58998132D01*
X74651263Y-59283259D01*
X74635396Y-59283047D01*
X74666812Y-59179482D01*
X74679072Y-59055000D01*
X74676000Y-58547750D01*
X74517250Y-58389000D01*
X73375000Y-58389000D01*
X73375000Y-58409000D01*
X72929000Y-58409000D01*
X72929000Y-58389000D01*
X71786750Y-58389000D01*
X71628000Y-58547750D01*
X71624928Y-59055000D01*
X71637188Y-59179482D01*
X71656556Y-59243329D01*
X70877235Y-59232938D01*
X68599469Y-58857482D01*
X66294000Y-57459485D01*
X66294000Y-55849000D01*
X67003000Y-55849000D01*
X67003000Y-56949000D01*
X67079843Y-57283197D01*
X67220408Y-57595981D01*
X67419293Y-57875332D01*
X67668855Y-58110515D01*
X67959504Y-58292492D01*
X68248583Y-58390541D01*
X68515000Y-58286396D01*
X68515000Y-55849000D01*
X68961000Y-55849000D01*
X68961000Y-58286396D01*
X69227417Y-58390541D01*
X69516496Y-58292492D01*
X69807145Y-58110515D01*
X70056707Y-57875332D01*
X70255592Y-57595981D01*
X70396157Y-57283197D01*
X70397581Y-57277000D01*
X71624928Y-57277000D01*
X71628000Y-57784250D01*
X71786750Y-57943000D01*
X72929000Y-57943000D01*
X72929000Y-56800750D01*
X73375000Y-56800750D01*
X73375000Y-57943000D01*
X74517250Y-57943000D01*
X74676000Y-57784250D01*
X74679072Y-57277000D01*
X74666812Y-57152518D01*
X74658768Y-57126000D01*
X75159928Y-57126000D01*
X75163000Y-57464250D01*
X75321750Y-57623000D01*
X76485000Y-57623000D01*
X76485000Y-56649750D01*
X76931000Y-56649750D01*
X76931000Y-57623000D01*
X78094250Y-57623000D01*
X78253000Y-57464250D01*
X78256072Y-57126000D01*
X78243812Y-57001518D01*
X78207502Y-56881820D01*
X78148537Y-56771506D01*
X78069185Y-56674815D01*
X77972494Y-56595463D01*
X77862180Y-56536498D01*
X77742482Y-56500188D01*
X77618000Y-56487928D01*
X77089750Y-56491000D01*
X76931000Y-56649750D01*
X76485000Y-56649750D01*
X76326250Y-56491000D01*
X75798000Y-56487928D01*
X75673518Y-56500188D01*
X75553820Y-56536498D01*
X75443506Y-56595463D01*
X75346815Y-56674815D01*
X75267463Y-56771506D01*
X75208498Y-56881820D01*
X75172188Y-57001518D01*
X75159928Y-57126000D01*
X74658768Y-57126000D01*
X74630502Y-57032820D01*
X74571537Y-56922506D01*
X74492185Y-56825815D01*
X74395494Y-56746463D01*
X74285180Y-56687498D01*
X74165482Y-56651188D01*
X74041000Y-56638928D01*
X73533750Y-56642000D01*
X73375000Y-56800750D01*
X72929000Y-56800750D01*
X72770250Y-56642000D01*
X72263000Y-56638928D01*
X72138518Y-56651188D01*
X72018820Y-56687498D01*
X71908506Y-56746463D01*
X71811815Y-56825815D01*
X71732463Y-56922506D01*
X71673498Y-57032820D01*
X71637188Y-57152518D01*
X71624928Y-57277000D01*
X70397581Y-57277000D01*
X70473000Y-56949000D01*
X70473000Y-55849000D01*
X68961000Y-55849000D01*
X68515000Y-55849000D01*
X67003000Y-55849000D01*
X66294000Y-55849000D01*
X66294000Y-54303000D01*
X67003000Y-54303000D01*
X67003000Y-55403000D01*
X68515000Y-55403000D01*
X68515000Y-52965604D01*
X68961000Y-52965604D01*
X68961000Y-55403000D01*
X70473000Y-55403000D01*
X70473000Y-54466463D01*
X81199569Y-54466463D01*
X81313029Y-54641000D01*
X82581000Y-54641000D01*
X82581000Y-53709000D01*
X83027000Y-53709000D01*
X83027000Y-54641000D01*
X84294971Y-54641000D01*
X84408431Y-54466463D01*
X84408240Y-54407734D01*
X84307616Y-54222000D01*
X85829928Y-54222000D01*
X85833000Y-54240250D01*
X85991750Y-54399000D01*
X86645000Y-54399000D01*
X86645000Y-53745750D01*
X87091000Y-53745750D01*
X87091000Y-54399000D01*
X87744250Y-54399000D01*
X87903000Y-54240250D01*
X87906072Y-54222000D01*
X87893812Y-54097518D01*
X87857502Y-53977820D01*
X87798537Y-53867506D01*
X87719185Y-53770815D01*
X87622494Y-53691463D01*
X87512180Y-53632498D01*
X87392482Y-53596188D01*
X87268000Y-53583928D01*
X87249750Y-53587000D01*
X87091000Y-53745750D01*
X86645000Y-53745750D01*
X86486250Y-53587000D01*
X86468000Y-53583928D01*
X86343518Y-53596188D01*
X86223820Y-53632498D01*
X86113506Y-53691463D01*
X86016815Y-53770815D01*
X85937463Y-53867506D01*
X85878498Y-53977820D01*
X85842188Y-54097518D01*
X85829928Y-54222000D01*
X84307616Y-54222000D01*
X84298393Y-54204976D01*
X84151101Y-54027544D01*
X83972024Y-53882257D01*
X83768044Y-53774698D01*
X83547000Y-53709000D01*
X83027000Y-53709000D01*
X82581000Y-53709000D01*
X82061000Y-53709000D01*
X81839956Y-53774698D01*
X81635976Y-53882257D01*
X81456899Y-54027544D01*
X81309607Y-54204976D01*
X81199760Y-54407734D01*
X81199569Y-54466463D01*
X70473000Y-54466463D01*
X70473000Y-54303000D01*
X70396157Y-53968803D01*
X70390479Y-53956167D01*
X73379203Y-53956167D01*
X73426898Y-54163356D01*
X73646824Y-54241586D01*
X73877786Y-54275407D01*
X74110908Y-54263519D01*
X74337232Y-54206381D01*
X74441102Y-54163356D01*
X74488797Y-53956167D01*
X73934000Y-53401370D01*
X73379203Y-53956167D01*
X70390479Y-53956167D01*
X70255592Y-53656019D01*
X70056707Y-53376668D01*
X69807145Y-53141485D01*
X69628743Y-53029786D01*
X72744593Y-53029786D01*
X72756481Y-53262908D01*
X72813619Y-53489232D01*
X72856644Y-53593102D01*
X73063833Y-53640797D01*
X73618630Y-53086000D01*
X74249370Y-53086000D01*
X74804167Y-53640797D01*
X75011356Y-53593102D01*
X75089586Y-53373176D01*
X75123407Y-53142214D01*
X75111519Y-52909092D01*
X75054381Y-52682768D01*
X75011356Y-52578898D01*
X74825006Y-52536000D01*
X75346412Y-52536000D01*
X75346412Y-53636000D01*
X75356742Y-53740878D01*
X75387333Y-53841726D01*
X75437012Y-53934668D01*
X75503868Y-54016132D01*
X75585332Y-54082988D01*
X75678274Y-54132667D01*
X75779122Y-54163258D01*
X75884000Y-54173588D01*
X76984000Y-54173588D01*
X77088878Y-54163258D01*
X77189726Y-54132667D01*
X77282668Y-54082988D01*
X77364132Y-54016132D01*
X77430988Y-53934668D01*
X77480667Y-53841726D01*
X77511258Y-53740878D01*
X77521588Y-53636000D01*
X77521588Y-52536000D01*
X77511258Y-52431122D01*
X77480667Y-52330274D01*
X77430988Y-52237332D01*
X77364132Y-52155868D01*
X77282668Y-52089012D01*
X77189726Y-52039333D01*
X77088878Y-52008742D01*
X76984000Y-51998412D01*
X75884000Y-51998412D01*
X75779122Y-52008742D01*
X75678274Y-52039333D01*
X75585332Y-52089012D01*
X75503868Y-52155868D01*
X75437012Y-52237332D01*
X75387333Y-52330274D01*
X75356742Y-52431122D01*
X75346412Y-52536000D01*
X74825006Y-52536000D01*
X74804167Y-52531203D01*
X74249370Y-53086000D01*
X73618630Y-53086000D01*
X73063833Y-52531203D01*
X72856644Y-52578898D01*
X72778414Y-52798824D01*
X72744593Y-53029786D01*
X69628743Y-53029786D01*
X69516496Y-52959508D01*
X69227417Y-52861459D01*
X68961000Y-52965604D01*
X68515000Y-52965604D01*
X68248583Y-52861459D01*
X67959504Y-52959508D01*
X67668855Y-53141485D01*
X67419293Y-53376668D01*
X67220408Y-53656019D01*
X67079843Y-53968803D01*
X67003000Y-54303000D01*
X66294000Y-54303000D01*
X66294000Y-52215833D01*
X73379203Y-52215833D01*
X73934000Y-52770630D01*
X74488797Y-52215833D01*
X74441102Y-52008644D01*
X74221176Y-51930414D01*
X73990214Y-51896593D01*
X73757092Y-51908481D01*
X73530768Y-51965619D01*
X73426898Y-52008644D01*
X73379203Y-52215833D01*
X66294000Y-52215833D01*
X66294000Y-49276000D01*
X79019577Y-49276000D01*
X89933673Y-49260757D01*
X89871215Y-49312015D01*
X89791863Y-49408706D01*
X89732898Y-49519020D01*
X89696588Y-49638718D01*
X89684328Y-49763200D01*
X89687400Y-52480250D01*
X89846150Y-52639000D01*
X92995000Y-52639000D01*
X92995000Y-52619000D01*
X93441000Y-52619000D01*
X93441000Y-52639000D01*
X96589850Y-52639000D01*
X96748600Y-52480250D01*
X96751672Y-49763200D01*
X96739412Y-49638718D01*
X96703102Y-49519020D01*
X96644137Y-49408706D01*
X96564785Y-49312015D01*
X96491167Y-49251599D01*
X97078800Y-49250778D01*
X97078800Y-56109023D01*
G37*
G04 #@! TD.AperFunction*
D30*
X79019369Y-48614000D02*
X66167000Y-48614000D01*
X66062627Y-48624280D01*
X65962264Y-48654724D01*
X65869770Y-48704164D01*
X65788698Y-48770698D01*
X65722164Y-48851770D01*
X65672724Y-48944264D01*
X65642280Y-49044627D01*
X65632000Y-49149000D01*
X65632000Y-57531000D01*
X65647372Y-57658326D01*
X65682197Y-57757254D01*
X65735652Y-57847487D01*
X65805684Y-57925557D01*
X65889601Y-57988465D01*
X67104515Y-58725168D01*
X66961000Y-58691000D01*
X65961000Y-58691000D01*
X65961000Y-60103000D01*
X68197310Y-60103000D01*
X68302895Y-59852365D01*
X68221346Y-59603060D01*
X68051805Y-59327565D01*
X67992448Y-59263595D01*
X68277201Y-59436265D01*
X68366276Y-59479558D01*
X68467587Y-59506677D01*
X70778987Y-59887677D01*
X70858867Y-59894752D01*
X71625461Y-59904973D01*
X71628000Y-60324250D01*
X71786750Y-60483000D01*
X72929000Y-60483000D01*
X72929000Y-60463000D01*
X73375000Y-60463000D01*
X73375000Y-60483000D01*
X74517250Y-60483000D01*
X74676000Y-60324250D01*
X74678299Y-59944666D01*
X74782671Y-59934858D01*
X74882899Y-59903974D01*
X75160976Y-59787361D01*
X75159928Y-59798000D01*
X75163000Y-60136250D01*
X75321750Y-60295000D01*
X76485000Y-60295000D01*
X76485000Y-60275000D01*
X76931000Y-60275000D01*
X76931000Y-60295000D01*
X78094250Y-60295000D01*
X78253000Y-60136250D01*
X78256072Y-59798000D01*
X78243812Y-59673518D01*
X78226182Y-59615400D01*
X78384400Y-59615400D01*
X78509165Y-59600649D01*
X78608264Y-59566312D01*
X78698759Y-59513301D01*
X78777173Y-59443655D01*
X78840494Y-59360049D01*
X80866477Y-56055768D01*
X81242494Y-55945175D01*
X81223896Y-56134000D01*
X81244266Y-56340816D01*
X81304592Y-56539684D01*
X81402556Y-56722962D01*
X81440338Y-56769000D01*
X81402556Y-56815038D01*
X81304592Y-56998316D01*
X81244266Y-57197184D01*
X81223896Y-57404000D01*
X81244266Y-57610816D01*
X81304592Y-57809684D01*
X81402556Y-57992962D01*
X81534393Y-58153607D01*
X81695038Y-58285444D01*
X81878316Y-58383408D01*
X82077184Y-58443734D01*
X82232179Y-58459000D01*
X83375821Y-58459000D01*
X83530816Y-58443734D01*
X83729684Y-58383408D01*
X83912962Y-58285444D01*
X84073607Y-58153607D01*
X84205444Y-57992962D01*
X84303408Y-57809684D01*
X84363734Y-57610816D01*
X84384104Y-57404000D01*
X84363734Y-57197184D01*
X84303408Y-56998316D01*
X84207562Y-56819000D01*
X86020120Y-56819000D01*
X86021012Y-56820668D01*
X86087868Y-56902132D01*
X86169332Y-56968988D01*
X86183000Y-56976294D01*
X86183000Y-57350412D01*
X85958000Y-57350412D01*
X85853122Y-57360742D01*
X85752274Y-57391333D01*
X85659332Y-57441012D01*
X85577868Y-57507868D01*
X85511012Y-57589332D01*
X85461333Y-57682274D01*
X85430742Y-57783122D01*
X85420412Y-57888000D01*
X85420412Y-59328000D01*
X85430742Y-59432878D01*
X85461333Y-59533726D01*
X85511012Y-59626668D01*
X85577868Y-59708132D01*
X85659332Y-59774988D01*
X85752274Y-59824667D01*
X85853122Y-59855258D01*
X85958000Y-59865588D01*
X87778000Y-59865588D01*
X87882878Y-59855258D01*
X87983726Y-59824667D01*
X88076668Y-59774988D01*
X88158132Y-59708132D01*
X88224988Y-59626668D01*
X88274667Y-59533726D01*
X88287021Y-59493000D01*
X88467422Y-59493000D01*
X89488712Y-60514291D01*
X89488712Y-61544000D01*
X89499042Y-61648878D01*
X89529633Y-61749726D01*
X89579312Y-61842668D01*
X89646168Y-61924132D01*
X89727632Y-61990988D01*
X89820574Y-62040667D01*
X89921422Y-62071258D01*
X90026300Y-62081588D01*
X91931300Y-62081588D01*
X92036178Y-62071258D01*
X92137026Y-62040667D01*
X92229968Y-61990988D01*
X92311432Y-61924132D01*
X92378288Y-61842668D01*
X92427967Y-61749726D01*
X92458558Y-61648878D01*
X92468888Y-61544000D01*
X92468888Y-58546800D01*
X92458558Y-58441922D01*
X92427967Y-58341074D01*
X92378288Y-58248132D01*
X92311432Y-58166668D01*
X92229968Y-58099812D01*
X92137026Y-58050133D01*
X92036178Y-58019542D01*
X91931300Y-58009212D01*
X90026300Y-58009212D01*
X89921422Y-58019542D01*
X89820574Y-58050133D01*
X89727632Y-58099812D01*
X89646168Y-58166668D01*
X89645302Y-58167724D01*
X89490534Y-58012956D01*
X89462817Y-57979183D01*
X89328059Y-57868589D01*
X89174313Y-57786411D01*
X89007490Y-57735805D01*
X88877477Y-57723000D01*
X88877469Y-57723000D01*
X88834000Y-57718719D01*
X88790531Y-57723000D01*
X88287021Y-57723000D01*
X88274667Y-57682274D01*
X88224988Y-57589332D01*
X88158132Y-57507868D01*
X88076668Y-57441012D01*
X87983726Y-57391333D01*
X87882878Y-57360742D01*
X87778000Y-57350412D01*
X87553000Y-57350412D01*
X87553000Y-56976294D01*
X87566668Y-56968988D01*
X87648132Y-56902132D01*
X87714988Y-56820668D01*
X87764667Y-56727726D01*
X87795258Y-56626878D01*
X87805588Y-56522000D01*
X87805588Y-55722000D01*
X87795258Y-55617122D01*
X87794411Y-55614331D01*
X87887523Y-55610283D01*
X89255886Y-56682167D01*
X89382713Y-56755955D01*
X89483176Y-56786065D01*
X89587583Y-56795997D01*
X97159000Y-56770759D01*
X97159001Y-57041220D01*
X96216409Y-57983812D01*
X94479300Y-57983812D01*
X94374422Y-57994142D01*
X94273574Y-58024733D01*
X94180632Y-58074412D01*
X94099168Y-58141268D01*
X94032312Y-58222732D01*
X93982633Y-58315674D01*
X93952042Y-58416522D01*
X93941712Y-58521400D01*
X93941712Y-61518600D01*
X93952042Y-61623478D01*
X93982633Y-61724326D01*
X94032312Y-61817268D01*
X94099168Y-61898732D01*
X94180632Y-61965588D01*
X94273574Y-62015267D01*
X94374422Y-62045858D01*
X94479300Y-62056188D01*
X96384300Y-62056188D01*
X96489178Y-62045858D01*
X96590026Y-62015267D01*
X96682968Y-61965588D01*
X96764432Y-61898732D01*
X96831288Y-61817268D01*
X96880967Y-61724326D01*
X96911558Y-61623478D01*
X96921888Y-61518600D01*
X96921888Y-61362000D01*
X99667928Y-61362000D01*
X99680188Y-61486482D01*
X99716498Y-61606180D01*
X99775463Y-61716494D01*
X99854815Y-61813185D01*
X99951506Y-61892537D01*
X100061820Y-61951502D01*
X100181518Y-61987812D01*
X100306000Y-62000072D01*
X100644250Y-61997000D01*
X100803000Y-61838250D01*
X100803000Y-60675000D01*
X101249000Y-60675000D01*
X101249000Y-61838250D01*
X101407750Y-61997000D01*
X101746000Y-62000072D01*
X101870482Y-61987812D01*
X101990180Y-61951502D01*
X102100494Y-61892537D01*
X102197185Y-61813185D01*
X102276537Y-61716494D01*
X102335502Y-61606180D01*
X102371812Y-61486482D01*
X102384072Y-61362000D01*
X102381000Y-60833750D01*
X102222250Y-60675000D01*
X101249000Y-60675000D01*
X100803000Y-60675000D01*
X99829750Y-60675000D01*
X99671000Y-60833750D01*
X99667928Y-61362000D01*
X96921888Y-61362000D01*
X96921888Y-59781490D01*
X98639049Y-58064330D01*
X98672817Y-58036617D01*
X98716154Y-57983812D01*
X98783411Y-57901859D01*
X98805548Y-57860444D01*
X98802928Y-58293000D01*
X98815188Y-58417482D01*
X98851498Y-58537180D01*
X98910463Y-58647494D01*
X98989815Y-58744185D01*
X99086506Y-58823537D01*
X99196820Y-58882502D01*
X99316518Y-58918812D01*
X99441000Y-58931072D01*
X99948250Y-58928000D01*
X100106998Y-58769252D01*
X100106998Y-58928000D01*
X100142579Y-58928000D01*
X100061820Y-58952498D01*
X99951506Y-59011463D01*
X99854815Y-59090815D01*
X99775463Y-59187506D01*
X99716498Y-59297820D01*
X99680188Y-59417518D01*
X99667928Y-59542000D01*
X99671000Y-60070250D01*
X99829750Y-60229000D01*
X100803000Y-60229000D01*
X100803000Y-60209000D01*
X101249000Y-60209000D01*
X101249000Y-60229000D01*
X102222250Y-60229000D01*
X102381000Y-60070250D01*
X102384072Y-59542000D01*
X102440412Y-59542000D01*
X102440412Y-61362000D01*
X102450742Y-61466878D01*
X102481333Y-61567726D01*
X102531012Y-61660668D01*
X102597868Y-61742132D01*
X102679332Y-61808988D01*
X102772274Y-61858667D01*
X102873122Y-61889258D01*
X102978000Y-61899588D01*
X104418000Y-61899588D01*
X104522878Y-61889258D01*
X104623726Y-61858667D01*
X104716668Y-61808988D01*
X104798132Y-61742132D01*
X104864988Y-61660668D01*
X104914667Y-61567726D01*
X104939154Y-61487000D01*
X106375172Y-61487000D01*
X106426000Y-61492006D01*
X106446367Y-61490000D01*
X134447928Y-61490000D01*
X134460188Y-61614482D01*
X134496498Y-61734180D01*
X134555463Y-61844494D01*
X134634815Y-61941185D01*
X134731506Y-62020537D01*
X134841820Y-62079502D01*
X134961518Y-62115812D01*
X135086000Y-62128072D01*
X135254250Y-62125000D01*
X135413000Y-61966250D01*
X135413000Y-61163000D01*
X135859000Y-61163000D01*
X135859000Y-61966250D01*
X136017750Y-62125000D01*
X136186000Y-62128072D01*
X136310482Y-62115812D01*
X136430180Y-62079502D01*
X136540494Y-62020537D01*
X136637185Y-61941185D01*
X136716537Y-61844494D01*
X136775502Y-61734180D01*
X136811812Y-61614482D01*
X136824072Y-61490000D01*
X136821000Y-61321750D01*
X136662250Y-61163000D01*
X135859000Y-61163000D01*
X135413000Y-61163000D01*
X134609750Y-61163000D01*
X134451000Y-61321750D01*
X134447928Y-61490000D01*
X106446367Y-61490000D01*
X106476828Y-61487000D01*
X106476838Y-61487000D01*
X106628895Y-61472024D01*
X106823993Y-61412841D01*
X107003797Y-61316734D01*
X107161396Y-61187396D01*
X107193807Y-61147903D01*
X107611710Y-60730000D01*
X143739928Y-60730000D01*
X143752188Y-60854482D01*
X143788498Y-60974180D01*
X143847463Y-61084494D01*
X143926815Y-61181185D01*
X144023506Y-61260537D01*
X144133820Y-61319502D01*
X144253518Y-61355812D01*
X144378000Y-61368072D01*
X144906250Y-61365000D01*
X145065000Y-61206250D01*
X145065000Y-60233000D01*
X143901750Y-60233000D01*
X143743000Y-60391750D01*
X143739928Y-60730000D01*
X107611710Y-60730000D01*
X108116711Y-60225000D01*
X109296190Y-60225000D01*
X109524049Y-60202558D01*
X109816414Y-60113870D01*
X110085858Y-59969849D01*
X110322029Y-59776029D01*
X110515849Y-59539858D01*
X110626072Y-59333645D01*
X123099725Y-59333645D01*
X123542338Y-59874050D01*
X124318901Y-60278531D01*
X125159453Y-60523740D01*
X126031692Y-60600254D01*
X126902099Y-60505132D01*
X127267543Y-60390000D01*
X134447928Y-60390000D01*
X134451000Y-60558250D01*
X134609750Y-60717000D01*
X135413000Y-60717000D01*
X135413000Y-59913750D01*
X135859000Y-59913750D01*
X135859000Y-60717000D01*
X136662250Y-60717000D01*
X136821000Y-60558250D01*
X136824072Y-60390000D01*
X136811812Y-60265518D01*
X136775502Y-60145820D01*
X136716537Y-60035506D01*
X136637185Y-59938815D01*
X136540494Y-59859463D01*
X136430180Y-59800498D01*
X136310482Y-59764188D01*
X136186000Y-59751928D01*
X136017750Y-59755000D01*
X135859000Y-59913750D01*
X135413000Y-59913750D01*
X135254250Y-59755000D01*
X135086000Y-59751928D01*
X134961518Y-59764188D01*
X134841820Y-59800498D01*
X134731506Y-59859463D01*
X134634815Y-59938815D01*
X134555463Y-60035506D01*
X134496498Y-60145820D01*
X134460188Y-60265518D01*
X134447928Y-60390000D01*
X127267543Y-60390000D01*
X127737224Y-60242029D01*
X128425662Y-59874050D01*
X128868275Y-59333645D01*
X125984000Y-56449370D01*
X123099725Y-59333645D01*
X110626072Y-59333645D01*
X110659870Y-59270414D01*
X110748558Y-58978049D01*
X110778504Y-58674000D01*
X110748558Y-58369951D01*
X110659870Y-58077586D01*
X110515849Y-57808142D01*
X110322029Y-57571971D01*
X110199717Y-57471592D01*
X110322664Y-57382864D01*
X110545118Y-57143748D01*
X110716648Y-56865828D01*
X110800845Y-56610161D01*
X110695493Y-56357000D01*
X108427000Y-56357000D01*
X108427000Y-56377000D01*
X107981000Y-56377000D01*
X107981000Y-56357000D01*
X105712507Y-56357000D01*
X105607155Y-56610161D01*
X105691352Y-56865828D01*
X105862882Y-57143748D01*
X106085336Y-57382864D01*
X106208283Y-57471592D01*
X106085971Y-57571971D01*
X105892151Y-57808142D01*
X105748130Y-58077586D01*
X105659442Y-58369951D01*
X105629496Y-58674000D01*
X105659442Y-58978049D01*
X105748130Y-59270414D01*
X105826482Y-59417000D01*
X104939154Y-59417000D01*
X104914667Y-59336274D01*
X104864988Y-59243332D01*
X104798132Y-59161868D01*
X104716668Y-59095012D01*
X104623726Y-59045333D01*
X104522878Y-59014742D01*
X104418000Y-59004412D01*
X102978000Y-59004412D01*
X102873122Y-59014742D01*
X102772274Y-59045333D01*
X102679332Y-59095012D01*
X102597868Y-59161868D01*
X102531012Y-59243332D01*
X102481333Y-59336274D01*
X102450742Y-59437122D01*
X102440412Y-59542000D01*
X102384072Y-59542000D01*
X102371812Y-59417518D01*
X102335502Y-59297820D01*
X102276537Y-59187506D01*
X102197185Y-59090815D01*
X102100494Y-59011463D01*
X101990180Y-58952498D01*
X101870482Y-58916188D01*
X101746000Y-58903928D01*
X101407750Y-58907000D01*
X101249002Y-59065748D01*
X101249002Y-58928117D01*
X101343482Y-58918812D01*
X101463180Y-58882502D01*
X101573494Y-58823537D01*
X101670185Y-58744185D01*
X101749537Y-58647494D01*
X101808502Y-58537180D01*
X101844812Y-58417482D01*
X101857072Y-58293000D01*
X101854369Y-57846637D01*
X101878498Y-57926180D01*
X101937463Y-58036494D01*
X102016815Y-58133185D01*
X102113506Y-58212537D01*
X102223820Y-58271502D01*
X102343518Y-58307812D01*
X102468000Y-58320072D01*
X102996250Y-58317000D01*
X103155000Y-58158250D01*
X103155000Y-57185000D01*
X103601000Y-57185000D01*
X103601000Y-58158250D01*
X103759750Y-58317000D01*
X104288000Y-58320072D01*
X104412482Y-58307812D01*
X104532180Y-58271502D01*
X104642494Y-58212537D01*
X104739185Y-58133185D01*
X104818537Y-58036494D01*
X104877502Y-57926180D01*
X104913812Y-57806482D01*
X104926072Y-57682000D01*
X104923000Y-57343750D01*
X104764250Y-57185000D01*
X103601000Y-57185000D01*
X103155000Y-57185000D01*
X103135000Y-57185000D01*
X103135000Y-56739000D01*
X103155000Y-56739000D01*
X103155000Y-56719000D01*
X103601000Y-56719000D01*
X103601000Y-56739000D01*
X104764250Y-56739000D01*
X104923000Y-56580250D01*
X104925223Y-56335530D01*
X104945230Y-56324836D01*
X105026302Y-56258302D01*
X105102912Y-56181692D01*
X121517746Y-56181692D01*
X121612868Y-57052099D01*
X121875971Y-57887224D01*
X122243950Y-58575662D01*
X122784355Y-59018275D01*
X125668630Y-56134000D01*
X126299370Y-56134000D01*
X129183645Y-59018275D01*
X129724050Y-58575662D01*
X129850371Y-58333137D01*
X134551000Y-58333137D01*
X134551000Y-58546863D01*
X134592696Y-58756483D01*
X134674485Y-58953940D01*
X134793225Y-59131647D01*
X134944353Y-59282775D01*
X135122060Y-59401515D01*
X135319517Y-59483304D01*
X135529137Y-59525000D01*
X135742863Y-59525000D01*
X135952483Y-59483304D01*
X136149940Y-59401515D01*
X136327647Y-59282775D01*
X136478775Y-59131647D01*
X136529988Y-59055000D01*
X140458928Y-59055000D01*
X140471188Y-59179482D01*
X140507498Y-59299180D01*
X140566463Y-59409494D01*
X140645815Y-59506185D01*
X140742506Y-59585537D01*
X140852820Y-59644502D01*
X140972518Y-59680812D01*
X141097000Y-59693072D01*
X141604250Y-59690000D01*
X141763000Y-59531250D01*
X141763000Y-58389000D01*
X140620750Y-58389000D01*
X140462000Y-58547750D01*
X140458928Y-59055000D01*
X136529988Y-59055000D01*
X136597515Y-58953940D01*
X136679304Y-58756483D01*
X136721000Y-58546863D01*
X136721000Y-58333137D01*
X136679304Y-58123517D01*
X136597515Y-57926060D01*
X136478775Y-57748353D01*
X136327647Y-57597225D01*
X136149940Y-57478485D01*
X135952483Y-57396696D01*
X135742863Y-57355000D01*
X135529137Y-57355000D01*
X135319517Y-57396696D01*
X135122060Y-57478485D01*
X134944353Y-57597225D01*
X134793225Y-57748353D01*
X134674485Y-57926060D01*
X134592696Y-58123517D01*
X134551000Y-58333137D01*
X129850371Y-58333137D01*
X130128531Y-57799099D01*
X130373740Y-56958547D01*
X130450254Y-56086308D01*
X130355132Y-55215901D01*
X130092029Y-54380776D01*
X129724050Y-53692338D01*
X129183645Y-53249725D01*
X126299370Y-56134000D01*
X125668630Y-56134000D01*
X122784355Y-53249725D01*
X122243950Y-53692338D01*
X121839469Y-54468901D01*
X121594260Y-55309453D01*
X121517746Y-56181692D01*
X105102912Y-56181692D01*
X105612918Y-55671686D01*
X105712507Y-55911000D01*
X107981000Y-55911000D01*
X107981000Y-55891000D01*
X108427000Y-55891000D01*
X108427000Y-55911000D01*
X110695493Y-55911000D01*
X110800845Y-55657839D01*
X110716648Y-55402172D01*
X110690373Y-55359600D01*
X110694736Y-55358276D01*
X110787230Y-55308836D01*
X110868302Y-55242302D01*
X110934836Y-55161230D01*
X110984276Y-55068736D01*
X111014720Y-54968373D01*
X111025000Y-54864000D01*
X111025000Y-52934355D01*
X123099725Y-52934355D01*
X125984000Y-55818630D01*
X128589493Y-53213137D01*
X134551000Y-53213137D01*
X134551000Y-53426863D01*
X134592696Y-53636483D01*
X134674485Y-53833940D01*
X134793225Y-54011647D01*
X134944353Y-54162775D01*
X135122060Y-54281515D01*
X135319517Y-54363304D01*
X135529137Y-54405000D01*
X135742863Y-54405000D01*
X135952483Y-54363304D01*
X136149940Y-54281515D01*
X136327647Y-54162775D01*
X136478775Y-54011647D01*
X136597515Y-53833940D01*
X136679304Y-53636483D01*
X136721000Y-53426863D01*
X136721000Y-53213137D01*
X136679304Y-53003517D01*
X136597515Y-52806060D01*
X136478775Y-52628353D01*
X136327647Y-52477225D01*
X136149940Y-52358485D01*
X135952483Y-52276696D01*
X135742863Y-52235000D01*
X135529137Y-52235000D01*
X135319517Y-52276696D01*
X135122060Y-52358485D01*
X134944353Y-52477225D01*
X134793225Y-52628353D01*
X134674485Y-52806060D01*
X134592696Y-53003517D01*
X134551000Y-53213137D01*
X128589493Y-53213137D01*
X128868275Y-52934355D01*
X128425662Y-52393950D01*
X127649099Y-51989469D01*
X126808547Y-51744260D01*
X125936308Y-51667746D01*
X125065901Y-51762868D01*
X124230776Y-52025971D01*
X123542338Y-52393950D01*
X123099725Y-52934355D01*
X111025000Y-52934355D01*
X111025000Y-52070000D01*
X111014720Y-51965627D01*
X110984276Y-51865264D01*
X110934836Y-51772770D01*
X110868302Y-51691698D01*
X110787230Y-51625164D01*
X110694736Y-51575724D01*
X110594373Y-51545280D01*
X110490000Y-51535000D01*
X98552000Y-51535000D01*
X98447627Y-51545280D01*
X98347264Y-51575724D01*
X98254770Y-51625164D01*
X98173698Y-51691698D01*
X98107164Y-51772770D01*
X98057724Y-51865264D01*
X98027280Y-51965627D01*
X98017000Y-52070000D01*
X98017000Y-55036421D01*
X97740800Y-55312621D01*
X97740800Y-51370000D01*
X134447928Y-51370000D01*
X134460188Y-51494482D01*
X134496498Y-51614180D01*
X134555463Y-51724494D01*
X134634815Y-51821185D01*
X134731506Y-51900537D01*
X134841820Y-51959502D01*
X134961518Y-51995812D01*
X135086000Y-52008072D01*
X135254250Y-52005000D01*
X135413000Y-51846250D01*
X135413000Y-51043000D01*
X135859000Y-51043000D01*
X135859000Y-51846250D01*
X136017750Y-52005000D01*
X136186000Y-52008072D01*
X136310482Y-51995812D01*
X136430180Y-51959502D01*
X136540494Y-51900537D01*
X136637185Y-51821185D01*
X136716537Y-51724494D01*
X136775502Y-51614180D01*
X136811812Y-51494482D01*
X136824072Y-51370000D01*
X136821000Y-51201750D01*
X136662250Y-51043000D01*
X135859000Y-51043000D01*
X135413000Y-51043000D01*
X134609750Y-51043000D01*
X134451000Y-51201750D01*
X134447928Y-51370000D01*
X97740800Y-51370000D01*
X97740800Y-50270000D01*
X134447928Y-50270000D01*
X134451000Y-50438250D01*
X134609750Y-50597000D01*
X135413000Y-50597000D01*
X135413000Y-49793750D01*
X135859000Y-49793750D01*
X135859000Y-50597000D01*
X136662250Y-50597000D01*
X136821000Y-50438250D01*
X136824072Y-50270000D01*
X136811812Y-50145518D01*
X136775502Y-50025820D01*
X136716537Y-49915506D01*
X136637185Y-49818815D01*
X136540494Y-49739463D01*
X136430180Y-49680498D01*
X136310482Y-49644188D01*
X136186000Y-49631928D01*
X136017750Y-49635000D01*
X135859000Y-49793750D01*
X135413000Y-49793750D01*
X135254250Y-49635000D01*
X135086000Y-49631928D01*
X134961518Y-49644188D01*
X134841820Y-49680498D01*
X134731506Y-49739463D01*
X134634815Y-49818815D01*
X134555463Y-49915506D01*
X134496498Y-50025820D01*
X134460188Y-50145518D01*
X134447928Y-50270000D01*
X97740800Y-50270000D01*
X97740800Y-49123600D01*
X97730374Y-49018494D01*
X97699789Y-48918174D01*
X97650221Y-48825749D01*
X97583573Y-48744770D01*
X97502409Y-48678349D01*
X97409845Y-48629039D01*
X97309440Y-48598735D01*
X97233885Y-48591400D01*
X139395677Y-48591400D01*
X139275834Y-48737429D01*
X139144004Y-48984067D01*
X139062822Y-49251685D01*
X139035411Y-49529999D01*
X139035411Y-49530001D01*
X139062822Y-49808315D01*
X139144004Y-50075933D01*
X139275834Y-50322571D01*
X139453249Y-50538751D01*
X139669429Y-50716166D01*
X139916067Y-50847996D01*
X140035923Y-50884354D01*
X140032412Y-50920000D01*
X140032412Y-51720000D01*
X140042742Y-51824878D01*
X140073333Y-51925726D01*
X140083914Y-51945521D01*
X140083698Y-51945698D01*
X140017164Y-52026770D01*
X139967724Y-52119264D01*
X139937280Y-52219627D01*
X139927000Y-52324000D01*
X139927000Y-57150000D01*
X139937280Y-57254373D01*
X139967724Y-57354736D01*
X140017164Y-57447230D01*
X140083698Y-57528302D01*
X140164770Y-57594836D01*
X140257264Y-57644276D01*
X140357627Y-57674720D01*
X140461399Y-57684941D01*
X140462000Y-57784250D01*
X140620750Y-57943000D01*
X141763000Y-57943000D01*
X141763000Y-57923000D01*
X142209000Y-57923000D01*
X142209000Y-57943000D01*
X142229000Y-57943000D01*
X142229000Y-58389000D01*
X142209000Y-58389000D01*
X142209000Y-59531250D01*
X142367750Y-59690000D01*
X142875000Y-59693072D01*
X142999482Y-59680812D01*
X143119180Y-59644502D01*
X143229494Y-59585537D01*
X143326185Y-59506185D01*
X143405537Y-59409494D01*
X143464502Y-59299180D01*
X143500812Y-59179482D01*
X143513072Y-59055000D01*
X143510196Y-58580140D01*
X143523724Y-58624736D01*
X143573164Y-58717230D01*
X143639698Y-58798302D01*
X143720770Y-58864836D01*
X143813264Y-58914276D01*
X143854597Y-58926814D01*
X143847463Y-58935506D01*
X143788498Y-59045820D01*
X143752188Y-59165518D01*
X143739928Y-59290000D01*
X143743000Y-59628250D01*
X143901750Y-59787000D01*
X145065000Y-59787000D01*
X145065000Y-59767000D01*
X145511000Y-59767000D01*
X145511000Y-59787000D01*
X145531000Y-59787000D01*
X145531000Y-60233000D01*
X145511000Y-60233000D01*
X145511000Y-61206250D01*
X145669750Y-61365000D01*
X146198000Y-61368072D01*
X146322482Y-61355812D01*
X146442180Y-61319502D01*
X146552494Y-61260537D01*
X146649185Y-61181185D01*
X146728537Y-61084494D01*
X146787502Y-60974180D01*
X146823812Y-60854482D01*
X146829033Y-60801467D01*
X146892815Y-60879185D01*
X146989506Y-60958537D01*
X147099820Y-61017502D01*
X147219518Y-61053812D01*
X147344000Y-61066072D01*
X148462250Y-61063000D01*
X148621000Y-60904250D01*
X148621000Y-59151000D01*
X149067000Y-59151000D01*
X149067000Y-60904250D01*
X149225750Y-61063000D01*
X150344000Y-61066072D01*
X150468482Y-61053812D01*
X150588180Y-61017502D01*
X150698494Y-60958537D01*
X150795185Y-60879185D01*
X150874537Y-60782494D01*
X150933502Y-60672180D01*
X150969812Y-60552482D01*
X150982072Y-60428000D01*
X150979000Y-59309750D01*
X150820250Y-59151000D01*
X149067000Y-59151000D01*
X148621000Y-59151000D01*
X148601000Y-59151000D01*
X148601000Y-58705000D01*
X148621000Y-58705000D01*
X148621000Y-58685000D01*
X149067000Y-58685000D01*
X149067000Y-58705000D01*
X150820250Y-58705000D01*
X150979000Y-58546250D01*
X150981366Y-57685000D01*
X151263214Y-57685000D01*
X151268539Y-62812505D01*
X151254345Y-62957264D01*
X151220174Y-63070445D01*
X151164669Y-63174834D01*
X151089944Y-63266456D01*
X150998848Y-63341818D01*
X150894851Y-63398048D01*
X150781906Y-63433011D01*
X150639298Y-63448000D01*
X56351886Y-63448000D01*
X56236454Y-63436681D01*
X56151751Y-63411109D01*
X56073639Y-63369575D01*
X56005081Y-63313661D01*
X55948686Y-63245491D01*
X55906605Y-63167665D01*
X55880445Y-63083153D01*
X55868520Y-62969701D01*
X55870518Y-60799635D01*
X63173105Y-60799635D01*
X63254654Y-61048940D01*
X63424195Y-61324435D01*
X63644224Y-61561561D01*
X63906287Y-61751205D01*
X64200312Y-61886079D01*
X64515000Y-61961000D01*
X65515000Y-61961000D01*
X65515000Y-60549000D01*
X65961000Y-60549000D01*
X65961000Y-61961000D01*
X66961000Y-61961000D01*
X67275688Y-61886079D01*
X67569713Y-61751205D01*
X67785567Y-61595000D01*
X71624928Y-61595000D01*
X71637188Y-61719482D01*
X71673498Y-61839180D01*
X71732463Y-61949494D01*
X71811815Y-62046185D01*
X71908506Y-62125537D01*
X72018820Y-62184502D01*
X72138518Y-62220812D01*
X72263000Y-62233072D01*
X72770250Y-62230000D01*
X72929000Y-62071250D01*
X72929000Y-60929000D01*
X73375000Y-60929000D01*
X73375000Y-62071250D01*
X73533750Y-62230000D01*
X74041000Y-62233072D01*
X74165482Y-62220812D01*
X74285180Y-62184502D01*
X74395494Y-62125537D01*
X74492185Y-62046185D01*
X74530087Y-62000000D01*
X85319928Y-62000000D01*
X85332188Y-62124482D01*
X85368498Y-62244180D01*
X85427463Y-62354494D01*
X85506815Y-62451185D01*
X85603506Y-62530537D01*
X85713820Y-62589502D01*
X85833518Y-62625812D01*
X85958000Y-62638072D01*
X86486250Y-62635000D01*
X86645000Y-62476250D01*
X86645000Y-61503000D01*
X87091000Y-61503000D01*
X87091000Y-62476250D01*
X87249750Y-62635000D01*
X87778000Y-62638072D01*
X87902482Y-62625812D01*
X88022180Y-62589502D01*
X88132494Y-62530537D01*
X88229185Y-62451185D01*
X88308537Y-62354494D01*
X88367502Y-62244180D01*
X88403812Y-62124482D01*
X88416072Y-62000000D01*
X88413000Y-61661750D01*
X88254250Y-61503000D01*
X87091000Y-61503000D01*
X86645000Y-61503000D01*
X85481750Y-61503000D01*
X85323000Y-61661750D01*
X85319928Y-62000000D01*
X74530087Y-62000000D01*
X74571537Y-61949494D01*
X74630502Y-61839180D01*
X74666812Y-61719482D01*
X74679072Y-61595000D01*
X74676910Y-61238000D01*
X75159928Y-61238000D01*
X75172188Y-61362482D01*
X75208498Y-61482180D01*
X75267463Y-61592494D01*
X75346815Y-61689185D01*
X75443506Y-61768537D01*
X75553820Y-61827502D01*
X75673518Y-61863812D01*
X75798000Y-61876072D01*
X76326250Y-61873000D01*
X76485000Y-61714250D01*
X76485000Y-60741000D01*
X76931000Y-60741000D01*
X76931000Y-61714250D01*
X77089750Y-61873000D01*
X77618000Y-61876072D01*
X77742482Y-61863812D01*
X77862180Y-61827502D01*
X77972494Y-61768537D01*
X78069185Y-61689185D01*
X78148537Y-61592494D01*
X78207502Y-61482180D01*
X78243812Y-61362482D01*
X78256072Y-61238000D01*
X78253000Y-60899750D01*
X78094250Y-60741000D01*
X76931000Y-60741000D01*
X76485000Y-60741000D01*
X75321750Y-60741000D01*
X75163000Y-60899750D01*
X75159928Y-61238000D01*
X74676910Y-61238000D01*
X74676000Y-61087750D01*
X74517250Y-60929000D01*
X73375000Y-60929000D01*
X72929000Y-60929000D01*
X71786750Y-60929000D01*
X71628000Y-61087750D01*
X71624928Y-61595000D01*
X67785567Y-61595000D01*
X67831776Y-61561561D01*
X68051805Y-61324435D01*
X68221346Y-61048940D01*
X68302895Y-60799635D01*
X68201944Y-60560000D01*
X85319928Y-60560000D01*
X85323000Y-60898250D01*
X85481750Y-61057000D01*
X86645000Y-61057000D01*
X86645000Y-60083750D01*
X87091000Y-60083750D01*
X87091000Y-61057000D01*
X88254250Y-61057000D01*
X88413000Y-60898250D01*
X88416072Y-60560000D01*
X88403812Y-60435518D01*
X88367502Y-60315820D01*
X88308537Y-60205506D01*
X88229185Y-60108815D01*
X88132494Y-60029463D01*
X88022180Y-59970498D01*
X87902482Y-59934188D01*
X87778000Y-59921928D01*
X87249750Y-59925000D01*
X87091000Y-60083750D01*
X86645000Y-60083750D01*
X86486250Y-59925000D01*
X85958000Y-59921928D01*
X85833518Y-59934188D01*
X85713820Y-59970498D01*
X85603506Y-60029463D01*
X85506815Y-60108815D01*
X85427463Y-60205506D01*
X85368498Y-60315820D01*
X85332188Y-60435518D01*
X85319928Y-60560000D01*
X68201944Y-60560000D01*
X68197310Y-60549000D01*
X65961000Y-60549000D01*
X65515000Y-60549000D01*
X63278690Y-60549000D01*
X63173105Y-60799635D01*
X55870518Y-60799635D01*
X55871390Y-59852365D01*
X63173105Y-59852365D01*
X63278690Y-60103000D01*
X65515000Y-60103000D01*
X65515000Y-58691000D01*
X64515000Y-58691000D01*
X64200312Y-58765921D01*
X63906287Y-58900795D01*
X63644224Y-59090439D01*
X63424195Y-59327565D01*
X63254654Y-59603060D01*
X63173105Y-59852365D01*
X55871390Y-59852365D01*
X55875077Y-55849000D01*
X61103000Y-55849000D01*
X61103000Y-56849000D01*
X61177921Y-57163688D01*
X61312795Y-57457713D01*
X61502439Y-57719776D01*
X61739565Y-57939805D01*
X62015060Y-58109346D01*
X62264365Y-58190895D01*
X62515000Y-58085310D01*
X62515000Y-55849000D01*
X62961000Y-55849000D01*
X62961000Y-58085310D01*
X63211635Y-58190895D01*
X63460940Y-58109346D01*
X63736435Y-57939805D01*
X63973561Y-57719776D01*
X64163205Y-57457713D01*
X64298079Y-57163688D01*
X64373000Y-56849000D01*
X64373000Y-55849000D01*
X62961000Y-55849000D01*
X62515000Y-55849000D01*
X61103000Y-55849000D01*
X55875077Y-55849000D01*
X55876408Y-54403000D01*
X61103000Y-54403000D01*
X61103000Y-55403000D01*
X62515000Y-55403000D01*
X62515000Y-53166690D01*
X62961000Y-53166690D01*
X62961000Y-55403000D01*
X64373000Y-55403000D01*
X64373000Y-54403000D01*
X64298079Y-54088312D01*
X64163205Y-53794287D01*
X63973561Y-53532224D01*
X63736435Y-53312195D01*
X63460940Y-53142654D01*
X63211635Y-53061105D01*
X62961000Y-53166690D01*
X62515000Y-53166690D01*
X62264365Y-53061105D01*
X62015060Y-53142654D01*
X61739565Y-53312195D01*
X61502439Y-53532224D01*
X61312795Y-53794287D01*
X61177921Y-54088312D01*
X61103000Y-54403000D01*
X55876408Y-54403000D01*
X55881175Y-49227442D01*
X55895422Y-49082136D01*
X55929593Y-48968957D01*
X55985100Y-48864564D01*
X56059823Y-48772944D01*
X56150918Y-48697583D01*
X56254916Y-48641352D01*
X56367862Y-48606389D01*
X56510468Y-48591400D01*
X95200969Y-48591400D01*
X79019369Y-48614000D01*
G04 #@! TA.AperFunction,Conductor*
D31*
G36*
X79019369Y-48614000D02*
G01*
X66167000Y-48614000D01*
X66062627Y-48624280D01*
X65962264Y-48654724D01*
X65869770Y-48704164D01*
X65788698Y-48770698D01*
X65722164Y-48851770D01*
X65672724Y-48944264D01*
X65642280Y-49044627D01*
X65632000Y-49149000D01*
X65632000Y-57531000D01*
X65647372Y-57658326D01*
X65682197Y-57757254D01*
X65735652Y-57847487D01*
X65805684Y-57925557D01*
X65889601Y-57988465D01*
X67104515Y-58725168D01*
X66961000Y-58691000D01*
X65961000Y-58691000D01*
X65961000Y-60103000D01*
X68197310Y-60103000D01*
X68302895Y-59852365D01*
X68221346Y-59603060D01*
X68051805Y-59327565D01*
X67992448Y-59263595D01*
X68277201Y-59436265D01*
X68366276Y-59479558D01*
X68467587Y-59506677D01*
X70778987Y-59887677D01*
X70858867Y-59894752D01*
X71625461Y-59904973D01*
X71628000Y-60324250D01*
X71786750Y-60483000D01*
X72929000Y-60483000D01*
X72929000Y-60463000D01*
X73375000Y-60463000D01*
X73375000Y-60483000D01*
X74517250Y-60483000D01*
X74676000Y-60324250D01*
X74678299Y-59944666D01*
X74782671Y-59934858D01*
X74882899Y-59903974D01*
X75160976Y-59787361D01*
X75159928Y-59798000D01*
X75163000Y-60136250D01*
X75321750Y-60295000D01*
X76485000Y-60295000D01*
X76485000Y-60275000D01*
X76931000Y-60275000D01*
X76931000Y-60295000D01*
X78094250Y-60295000D01*
X78253000Y-60136250D01*
X78256072Y-59798000D01*
X78243812Y-59673518D01*
X78226182Y-59615400D01*
X78384400Y-59615400D01*
X78509165Y-59600649D01*
X78608264Y-59566312D01*
X78698759Y-59513301D01*
X78777173Y-59443655D01*
X78840494Y-59360049D01*
X80866477Y-56055768D01*
X81242494Y-55945175D01*
X81223896Y-56134000D01*
X81244266Y-56340816D01*
X81304592Y-56539684D01*
X81402556Y-56722962D01*
X81440338Y-56769000D01*
X81402556Y-56815038D01*
X81304592Y-56998316D01*
X81244266Y-57197184D01*
X81223896Y-57404000D01*
X81244266Y-57610816D01*
X81304592Y-57809684D01*
X81402556Y-57992962D01*
X81534393Y-58153607D01*
X81695038Y-58285444D01*
X81878316Y-58383408D01*
X82077184Y-58443734D01*
X82232179Y-58459000D01*
X83375821Y-58459000D01*
X83530816Y-58443734D01*
X83729684Y-58383408D01*
X83912962Y-58285444D01*
X84073607Y-58153607D01*
X84205444Y-57992962D01*
X84303408Y-57809684D01*
X84363734Y-57610816D01*
X84384104Y-57404000D01*
X84363734Y-57197184D01*
X84303408Y-56998316D01*
X84207562Y-56819000D01*
X86020120Y-56819000D01*
X86021012Y-56820668D01*
X86087868Y-56902132D01*
X86169332Y-56968988D01*
X86183000Y-56976294D01*
X86183000Y-57350412D01*
X85958000Y-57350412D01*
X85853122Y-57360742D01*
X85752274Y-57391333D01*
X85659332Y-57441012D01*
X85577868Y-57507868D01*
X85511012Y-57589332D01*
X85461333Y-57682274D01*
X85430742Y-57783122D01*
X85420412Y-57888000D01*
X85420412Y-59328000D01*
X85430742Y-59432878D01*
X85461333Y-59533726D01*
X85511012Y-59626668D01*
X85577868Y-59708132D01*
X85659332Y-59774988D01*
X85752274Y-59824667D01*
X85853122Y-59855258D01*
X85958000Y-59865588D01*
X87778000Y-59865588D01*
X87882878Y-59855258D01*
X87983726Y-59824667D01*
X88076668Y-59774988D01*
X88158132Y-59708132D01*
X88224988Y-59626668D01*
X88274667Y-59533726D01*
X88287021Y-59493000D01*
X88467422Y-59493000D01*
X89488712Y-60514291D01*
X89488712Y-61544000D01*
X89499042Y-61648878D01*
X89529633Y-61749726D01*
X89579312Y-61842668D01*
X89646168Y-61924132D01*
X89727632Y-61990988D01*
X89820574Y-62040667D01*
X89921422Y-62071258D01*
X90026300Y-62081588D01*
X91931300Y-62081588D01*
X92036178Y-62071258D01*
X92137026Y-62040667D01*
X92229968Y-61990988D01*
X92311432Y-61924132D01*
X92378288Y-61842668D01*
X92427967Y-61749726D01*
X92458558Y-61648878D01*
X92468888Y-61544000D01*
X92468888Y-58546800D01*
X92458558Y-58441922D01*
X92427967Y-58341074D01*
X92378288Y-58248132D01*
X92311432Y-58166668D01*
X92229968Y-58099812D01*
X92137026Y-58050133D01*
X92036178Y-58019542D01*
X91931300Y-58009212D01*
X90026300Y-58009212D01*
X89921422Y-58019542D01*
X89820574Y-58050133D01*
X89727632Y-58099812D01*
X89646168Y-58166668D01*
X89645302Y-58167724D01*
X89490534Y-58012956D01*
X89462817Y-57979183D01*
X89328059Y-57868589D01*
X89174313Y-57786411D01*
X89007490Y-57735805D01*
X88877477Y-57723000D01*
X88877469Y-57723000D01*
X88834000Y-57718719D01*
X88790531Y-57723000D01*
X88287021Y-57723000D01*
X88274667Y-57682274D01*
X88224988Y-57589332D01*
X88158132Y-57507868D01*
X88076668Y-57441012D01*
X87983726Y-57391333D01*
X87882878Y-57360742D01*
X87778000Y-57350412D01*
X87553000Y-57350412D01*
X87553000Y-56976294D01*
X87566668Y-56968988D01*
X87648132Y-56902132D01*
X87714988Y-56820668D01*
X87764667Y-56727726D01*
X87795258Y-56626878D01*
X87805588Y-56522000D01*
X87805588Y-55722000D01*
X87795258Y-55617122D01*
X87794411Y-55614331D01*
X87887523Y-55610283D01*
X89255886Y-56682167D01*
X89382713Y-56755955D01*
X89483176Y-56786065D01*
X89587583Y-56795997D01*
X97159000Y-56770759D01*
X97159001Y-57041220D01*
X96216409Y-57983812D01*
X94479300Y-57983812D01*
X94374422Y-57994142D01*
X94273574Y-58024733D01*
X94180632Y-58074412D01*
X94099168Y-58141268D01*
X94032312Y-58222732D01*
X93982633Y-58315674D01*
X93952042Y-58416522D01*
X93941712Y-58521400D01*
X93941712Y-61518600D01*
X93952042Y-61623478D01*
X93982633Y-61724326D01*
X94032312Y-61817268D01*
X94099168Y-61898732D01*
X94180632Y-61965588D01*
X94273574Y-62015267D01*
X94374422Y-62045858D01*
X94479300Y-62056188D01*
X96384300Y-62056188D01*
X96489178Y-62045858D01*
X96590026Y-62015267D01*
X96682968Y-61965588D01*
X96764432Y-61898732D01*
X96831288Y-61817268D01*
X96880967Y-61724326D01*
X96911558Y-61623478D01*
X96921888Y-61518600D01*
X96921888Y-61362000D01*
X99667928Y-61362000D01*
X99680188Y-61486482D01*
X99716498Y-61606180D01*
X99775463Y-61716494D01*
X99854815Y-61813185D01*
X99951506Y-61892537D01*
X100061820Y-61951502D01*
X100181518Y-61987812D01*
X100306000Y-62000072D01*
X100644250Y-61997000D01*
X100803000Y-61838250D01*
X100803000Y-60675000D01*
X101249000Y-60675000D01*
X101249000Y-61838250D01*
X101407750Y-61997000D01*
X101746000Y-62000072D01*
X101870482Y-61987812D01*
X101990180Y-61951502D01*
X102100494Y-61892537D01*
X102197185Y-61813185D01*
X102276537Y-61716494D01*
X102335502Y-61606180D01*
X102371812Y-61486482D01*
X102384072Y-61362000D01*
X102381000Y-60833750D01*
X102222250Y-60675000D01*
X101249000Y-60675000D01*
X100803000Y-60675000D01*
X99829750Y-60675000D01*
X99671000Y-60833750D01*
X99667928Y-61362000D01*
X96921888Y-61362000D01*
X96921888Y-59781490D01*
X98639049Y-58064330D01*
X98672817Y-58036617D01*
X98716154Y-57983812D01*
X98783411Y-57901859D01*
X98805548Y-57860444D01*
X98802928Y-58293000D01*
X98815188Y-58417482D01*
X98851498Y-58537180D01*
X98910463Y-58647494D01*
X98989815Y-58744185D01*
X99086506Y-58823537D01*
X99196820Y-58882502D01*
X99316518Y-58918812D01*
X99441000Y-58931072D01*
X99948250Y-58928000D01*
X100106998Y-58769252D01*
X100106998Y-58928000D01*
X100142579Y-58928000D01*
X100061820Y-58952498D01*
X99951506Y-59011463D01*
X99854815Y-59090815D01*
X99775463Y-59187506D01*
X99716498Y-59297820D01*
X99680188Y-59417518D01*
X99667928Y-59542000D01*
X99671000Y-60070250D01*
X99829750Y-60229000D01*
X100803000Y-60229000D01*
X100803000Y-60209000D01*
X101249000Y-60209000D01*
X101249000Y-60229000D01*
X102222250Y-60229000D01*
X102381000Y-60070250D01*
X102384072Y-59542000D01*
X102440412Y-59542000D01*
X102440412Y-61362000D01*
X102450742Y-61466878D01*
X102481333Y-61567726D01*
X102531012Y-61660668D01*
X102597868Y-61742132D01*
X102679332Y-61808988D01*
X102772274Y-61858667D01*
X102873122Y-61889258D01*
X102978000Y-61899588D01*
X104418000Y-61899588D01*
X104522878Y-61889258D01*
X104623726Y-61858667D01*
X104716668Y-61808988D01*
X104798132Y-61742132D01*
X104864988Y-61660668D01*
X104914667Y-61567726D01*
X104939154Y-61487000D01*
X106375172Y-61487000D01*
X106426000Y-61492006D01*
X106446367Y-61490000D01*
X134447928Y-61490000D01*
X134460188Y-61614482D01*
X134496498Y-61734180D01*
X134555463Y-61844494D01*
X134634815Y-61941185D01*
X134731506Y-62020537D01*
X134841820Y-62079502D01*
X134961518Y-62115812D01*
X135086000Y-62128072D01*
X135254250Y-62125000D01*
X135413000Y-61966250D01*
X135413000Y-61163000D01*
X135859000Y-61163000D01*
X135859000Y-61966250D01*
X136017750Y-62125000D01*
X136186000Y-62128072D01*
X136310482Y-62115812D01*
X136430180Y-62079502D01*
X136540494Y-62020537D01*
X136637185Y-61941185D01*
X136716537Y-61844494D01*
X136775502Y-61734180D01*
X136811812Y-61614482D01*
X136824072Y-61490000D01*
X136821000Y-61321750D01*
X136662250Y-61163000D01*
X135859000Y-61163000D01*
X135413000Y-61163000D01*
X134609750Y-61163000D01*
X134451000Y-61321750D01*
X134447928Y-61490000D01*
X106446367Y-61490000D01*
X106476828Y-61487000D01*
X106476838Y-61487000D01*
X106628895Y-61472024D01*
X106823993Y-61412841D01*
X107003797Y-61316734D01*
X107161396Y-61187396D01*
X107193807Y-61147903D01*
X107611710Y-60730000D01*
X143739928Y-60730000D01*
X143752188Y-60854482D01*
X143788498Y-60974180D01*
X143847463Y-61084494D01*
X143926815Y-61181185D01*
X144023506Y-61260537D01*
X144133820Y-61319502D01*
X144253518Y-61355812D01*
X144378000Y-61368072D01*
X144906250Y-61365000D01*
X145065000Y-61206250D01*
X145065000Y-60233000D01*
X143901750Y-60233000D01*
X143743000Y-60391750D01*
X143739928Y-60730000D01*
X107611710Y-60730000D01*
X108116711Y-60225000D01*
X109296190Y-60225000D01*
X109524049Y-60202558D01*
X109816414Y-60113870D01*
X110085858Y-59969849D01*
X110322029Y-59776029D01*
X110515849Y-59539858D01*
X110626072Y-59333645D01*
X123099725Y-59333645D01*
X123542338Y-59874050D01*
X124318901Y-60278531D01*
X125159453Y-60523740D01*
X126031692Y-60600254D01*
X126902099Y-60505132D01*
X127267543Y-60390000D01*
X134447928Y-60390000D01*
X134451000Y-60558250D01*
X134609750Y-60717000D01*
X135413000Y-60717000D01*
X135413000Y-59913750D01*
X135859000Y-59913750D01*
X135859000Y-60717000D01*
X136662250Y-60717000D01*
X136821000Y-60558250D01*
X136824072Y-60390000D01*
X136811812Y-60265518D01*
X136775502Y-60145820D01*
X136716537Y-60035506D01*
X136637185Y-59938815D01*
X136540494Y-59859463D01*
X136430180Y-59800498D01*
X136310482Y-59764188D01*
X136186000Y-59751928D01*
X136017750Y-59755000D01*
X135859000Y-59913750D01*
X135413000Y-59913750D01*
X135254250Y-59755000D01*
X135086000Y-59751928D01*
X134961518Y-59764188D01*
X134841820Y-59800498D01*
X134731506Y-59859463D01*
X134634815Y-59938815D01*
X134555463Y-60035506D01*
X134496498Y-60145820D01*
X134460188Y-60265518D01*
X134447928Y-60390000D01*
X127267543Y-60390000D01*
X127737224Y-60242029D01*
X128425662Y-59874050D01*
X128868275Y-59333645D01*
X125984000Y-56449370D01*
X123099725Y-59333645D01*
X110626072Y-59333645D01*
X110659870Y-59270414D01*
X110748558Y-58978049D01*
X110778504Y-58674000D01*
X110748558Y-58369951D01*
X110659870Y-58077586D01*
X110515849Y-57808142D01*
X110322029Y-57571971D01*
X110199717Y-57471592D01*
X110322664Y-57382864D01*
X110545118Y-57143748D01*
X110716648Y-56865828D01*
X110800845Y-56610161D01*
X110695493Y-56357000D01*
X108427000Y-56357000D01*
X108427000Y-56377000D01*
X107981000Y-56377000D01*
X107981000Y-56357000D01*
X105712507Y-56357000D01*
X105607155Y-56610161D01*
X105691352Y-56865828D01*
X105862882Y-57143748D01*
X106085336Y-57382864D01*
X106208283Y-57471592D01*
X106085971Y-57571971D01*
X105892151Y-57808142D01*
X105748130Y-58077586D01*
X105659442Y-58369951D01*
X105629496Y-58674000D01*
X105659442Y-58978049D01*
X105748130Y-59270414D01*
X105826482Y-59417000D01*
X104939154Y-59417000D01*
X104914667Y-59336274D01*
X104864988Y-59243332D01*
X104798132Y-59161868D01*
X104716668Y-59095012D01*
X104623726Y-59045333D01*
X104522878Y-59014742D01*
X104418000Y-59004412D01*
X102978000Y-59004412D01*
X102873122Y-59014742D01*
X102772274Y-59045333D01*
X102679332Y-59095012D01*
X102597868Y-59161868D01*
X102531012Y-59243332D01*
X102481333Y-59336274D01*
X102450742Y-59437122D01*
X102440412Y-59542000D01*
X102384072Y-59542000D01*
X102371812Y-59417518D01*
X102335502Y-59297820D01*
X102276537Y-59187506D01*
X102197185Y-59090815D01*
X102100494Y-59011463D01*
X101990180Y-58952498D01*
X101870482Y-58916188D01*
X101746000Y-58903928D01*
X101407750Y-58907000D01*
X101249002Y-59065748D01*
X101249002Y-58928117D01*
X101343482Y-58918812D01*
X101463180Y-58882502D01*
X101573494Y-58823537D01*
X101670185Y-58744185D01*
X101749537Y-58647494D01*
X101808502Y-58537180D01*
X101844812Y-58417482D01*
X101857072Y-58293000D01*
X101854369Y-57846637D01*
X101878498Y-57926180D01*
X101937463Y-58036494D01*
X102016815Y-58133185D01*
X102113506Y-58212537D01*
X102223820Y-58271502D01*
X102343518Y-58307812D01*
X102468000Y-58320072D01*
X102996250Y-58317000D01*
X103155000Y-58158250D01*
X103155000Y-57185000D01*
X103601000Y-57185000D01*
X103601000Y-58158250D01*
X103759750Y-58317000D01*
X104288000Y-58320072D01*
X104412482Y-58307812D01*
X104532180Y-58271502D01*
X104642494Y-58212537D01*
X104739185Y-58133185D01*
X104818537Y-58036494D01*
X104877502Y-57926180D01*
X104913812Y-57806482D01*
X104926072Y-57682000D01*
X104923000Y-57343750D01*
X104764250Y-57185000D01*
X103601000Y-57185000D01*
X103155000Y-57185000D01*
X103135000Y-57185000D01*
X103135000Y-56739000D01*
X103155000Y-56739000D01*
X103155000Y-56719000D01*
X103601000Y-56719000D01*
X103601000Y-56739000D01*
X104764250Y-56739000D01*
X104923000Y-56580250D01*
X104925223Y-56335530D01*
X104945230Y-56324836D01*
X105026302Y-56258302D01*
X105102912Y-56181692D01*
X121517746Y-56181692D01*
X121612868Y-57052099D01*
X121875971Y-57887224D01*
X122243950Y-58575662D01*
X122784355Y-59018275D01*
X125668630Y-56134000D01*
X126299370Y-56134000D01*
X129183645Y-59018275D01*
X129724050Y-58575662D01*
X129850371Y-58333137D01*
X134551000Y-58333137D01*
X134551000Y-58546863D01*
X134592696Y-58756483D01*
X134674485Y-58953940D01*
X134793225Y-59131647D01*
X134944353Y-59282775D01*
X135122060Y-59401515D01*
X135319517Y-59483304D01*
X135529137Y-59525000D01*
X135742863Y-59525000D01*
X135952483Y-59483304D01*
X136149940Y-59401515D01*
X136327647Y-59282775D01*
X136478775Y-59131647D01*
X136529988Y-59055000D01*
X140458928Y-59055000D01*
X140471188Y-59179482D01*
X140507498Y-59299180D01*
X140566463Y-59409494D01*
X140645815Y-59506185D01*
X140742506Y-59585537D01*
X140852820Y-59644502D01*
X140972518Y-59680812D01*
X141097000Y-59693072D01*
X141604250Y-59690000D01*
X141763000Y-59531250D01*
X141763000Y-58389000D01*
X140620750Y-58389000D01*
X140462000Y-58547750D01*
X140458928Y-59055000D01*
X136529988Y-59055000D01*
X136597515Y-58953940D01*
X136679304Y-58756483D01*
X136721000Y-58546863D01*
X136721000Y-58333137D01*
X136679304Y-58123517D01*
X136597515Y-57926060D01*
X136478775Y-57748353D01*
X136327647Y-57597225D01*
X136149940Y-57478485D01*
X135952483Y-57396696D01*
X135742863Y-57355000D01*
X135529137Y-57355000D01*
X135319517Y-57396696D01*
X135122060Y-57478485D01*
X134944353Y-57597225D01*
X134793225Y-57748353D01*
X134674485Y-57926060D01*
X134592696Y-58123517D01*
X134551000Y-58333137D01*
X129850371Y-58333137D01*
X130128531Y-57799099D01*
X130373740Y-56958547D01*
X130450254Y-56086308D01*
X130355132Y-55215901D01*
X130092029Y-54380776D01*
X129724050Y-53692338D01*
X129183645Y-53249725D01*
X126299370Y-56134000D01*
X125668630Y-56134000D01*
X122784355Y-53249725D01*
X122243950Y-53692338D01*
X121839469Y-54468901D01*
X121594260Y-55309453D01*
X121517746Y-56181692D01*
X105102912Y-56181692D01*
X105612918Y-55671686D01*
X105712507Y-55911000D01*
X107981000Y-55911000D01*
X107981000Y-55891000D01*
X108427000Y-55891000D01*
X108427000Y-55911000D01*
X110695493Y-55911000D01*
X110800845Y-55657839D01*
X110716648Y-55402172D01*
X110690373Y-55359600D01*
X110694736Y-55358276D01*
X110787230Y-55308836D01*
X110868302Y-55242302D01*
X110934836Y-55161230D01*
X110984276Y-55068736D01*
X111014720Y-54968373D01*
X111025000Y-54864000D01*
X111025000Y-52934355D01*
X123099725Y-52934355D01*
X125984000Y-55818630D01*
X128589493Y-53213137D01*
X134551000Y-53213137D01*
X134551000Y-53426863D01*
X134592696Y-53636483D01*
X134674485Y-53833940D01*
X134793225Y-54011647D01*
X134944353Y-54162775D01*
X135122060Y-54281515D01*
X135319517Y-54363304D01*
X135529137Y-54405000D01*
X135742863Y-54405000D01*
X135952483Y-54363304D01*
X136149940Y-54281515D01*
X136327647Y-54162775D01*
X136478775Y-54011647D01*
X136597515Y-53833940D01*
X136679304Y-53636483D01*
X136721000Y-53426863D01*
X136721000Y-53213137D01*
X136679304Y-53003517D01*
X136597515Y-52806060D01*
X136478775Y-52628353D01*
X136327647Y-52477225D01*
X136149940Y-52358485D01*
X135952483Y-52276696D01*
X135742863Y-52235000D01*
X135529137Y-52235000D01*
X135319517Y-52276696D01*
X135122060Y-52358485D01*
X134944353Y-52477225D01*
X134793225Y-52628353D01*
X134674485Y-52806060D01*
X134592696Y-53003517D01*
X134551000Y-53213137D01*
X128589493Y-53213137D01*
X128868275Y-52934355D01*
X128425662Y-52393950D01*
X127649099Y-51989469D01*
X126808547Y-51744260D01*
X125936308Y-51667746D01*
X125065901Y-51762868D01*
X124230776Y-52025971D01*
X123542338Y-52393950D01*
X123099725Y-52934355D01*
X111025000Y-52934355D01*
X111025000Y-52070000D01*
X111014720Y-51965627D01*
X110984276Y-51865264D01*
X110934836Y-51772770D01*
X110868302Y-51691698D01*
X110787230Y-51625164D01*
X110694736Y-51575724D01*
X110594373Y-51545280D01*
X110490000Y-51535000D01*
X98552000Y-51535000D01*
X98447627Y-51545280D01*
X98347264Y-51575724D01*
X98254770Y-51625164D01*
X98173698Y-51691698D01*
X98107164Y-51772770D01*
X98057724Y-51865264D01*
X98027280Y-51965627D01*
X98017000Y-52070000D01*
X98017000Y-55036421D01*
X97740800Y-55312621D01*
X97740800Y-51370000D01*
X134447928Y-51370000D01*
X134460188Y-51494482D01*
X134496498Y-51614180D01*
X134555463Y-51724494D01*
X134634815Y-51821185D01*
X134731506Y-51900537D01*
X134841820Y-51959502D01*
X134961518Y-51995812D01*
X135086000Y-52008072D01*
X135254250Y-52005000D01*
X135413000Y-51846250D01*
X135413000Y-51043000D01*
X135859000Y-51043000D01*
X135859000Y-51846250D01*
X136017750Y-52005000D01*
X136186000Y-52008072D01*
X136310482Y-51995812D01*
X136430180Y-51959502D01*
X136540494Y-51900537D01*
X136637185Y-51821185D01*
X136716537Y-51724494D01*
X136775502Y-51614180D01*
X136811812Y-51494482D01*
X136824072Y-51370000D01*
X136821000Y-51201750D01*
X136662250Y-51043000D01*
X135859000Y-51043000D01*
X135413000Y-51043000D01*
X134609750Y-51043000D01*
X134451000Y-51201750D01*
X134447928Y-51370000D01*
X97740800Y-51370000D01*
X97740800Y-50270000D01*
X134447928Y-50270000D01*
X134451000Y-50438250D01*
X134609750Y-50597000D01*
X135413000Y-50597000D01*
X135413000Y-49793750D01*
X135859000Y-49793750D01*
X135859000Y-50597000D01*
X136662250Y-50597000D01*
X136821000Y-50438250D01*
X136824072Y-50270000D01*
X136811812Y-50145518D01*
X136775502Y-50025820D01*
X136716537Y-49915506D01*
X136637185Y-49818815D01*
X136540494Y-49739463D01*
X136430180Y-49680498D01*
X136310482Y-49644188D01*
X136186000Y-49631928D01*
X136017750Y-49635000D01*
X135859000Y-49793750D01*
X135413000Y-49793750D01*
X135254250Y-49635000D01*
X135086000Y-49631928D01*
X134961518Y-49644188D01*
X134841820Y-49680498D01*
X134731506Y-49739463D01*
X134634815Y-49818815D01*
X134555463Y-49915506D01*
X134496498Y-50025820D01*
X134460188Y-50145518D01*
X134447928Y-50270000D01*
X97740800Y-50270000D01*
X97740800Y-49123600D01*
X97730374Y-49018494D01*
X97699789Y-48918174D01*
X97650221Y-48825749D01*
X97583573Y-48744770D01*
X97502409Y-48678349D01*
X97409845Y-48629039D01*
X97309440Y-48598735D01*
X97233885Y-48591400D01*
X139395677Y-48591400D01*
X139275834Y-48737429D01*
X139144004Y-48984067D01*
X139062822Y-49251685D01*
X139035411Y-49529999D01*
X139035411Y-49530001D01*
X139062822Y-49808315D01*
X139144004Y-50075933D01*
X139275834Y-50322571D01*
X139453249Y-50538751D01*
X139669429Y-50716166D01*
X139916067Y-50847996D01*
X140035923Y-50884354D01*
X140032412Y-50920000D01*
X140032412Y-51720000D01*
X140042742Y-51824878D01*
X140073333Y-51925726D01*
X140083914Y-51945521D01*
X140083698Y-51945698D01*
X140017164Y-52026770D01*
X139967724Y-52119264D01*
X139937280Y-52219627D01*
X139927000Y-52324000D01*
X139927000Y-57150000D01*
X139937280Y-57254373D01*
X139967724Y-57354736D01*
X140017164Y-57447230D01*
X140083698Y-57528302D01*
X140164770Y-57594836D01*
X140257264Y-57644276D01*
X140357627Y-57674720D01*
X140461399Y-57684941D01*
X140462000Y-57784250D01*
X140620750Y-57943000D01*
X141763000Y-57943000D01*
X141763000Y-57923000D01*
X142209000Y-57923000D01*
X142209000Y-57943000D01*
X142229000Y-57943000D01*
X142229000Y-58389000D01*
X142209000Y-58389000D01*
X142209000Y-59531250D01*
X142367750Y-59690000D01*
X142875000Y-59693072D01*
X142999482Y-59680812D01*
X143119180Y-59644502D01*
X143229494Y-59585537D01*
X143326185Y-59506185D01*
X143405537Y-59409494D01*
X143464502Y-59299180D01*
X143500812Y-59179482D01*
X143513072Y-59055000D01*
X143510196Y-58580140D01*
X143523724Y-58624736D01*
X143573164Y-58717230D01*
X143639698Y-58798302D01*
X143720770Y-58864836D01*
X143813264Y-58914276D01*
X143854597Y-58926814D01*
X143847463Y-58935506D01*
X143788498Y-59045820D01*
X143752188Y-59165518D01*
X143739928Y-59290000D01*
X143743000Y-59628250D01*
X143901750Y-59787000D01*
X145065000Y-59787000D01*
X145065000Y-59767000D01*
X145511000Y-59767000D01*
X145511000Y-59787000D01*
X145531000Y-59787000D01*
X145531000Y-60233000D01*
X145511000Y-60233000D01*
X145511000Y-61206250D01*
X145669750Y-61365000D01*
X146198000Y-61368072D01*
X146322482Y-61355812D01*
X146442180Y-61319502D01*
X146552494Y-61260537D01*
X146649185Y-61181185D01*
X146728537Y-61084494D01*
X146787502Y-60974180D01*
X146823812Y-60854482D01*
X146829033Y-60801467D01*
X146892815Y-60879185D01*
X146989506Y-60958537D01*
X147099820Y-61017502D01*
X147219518Y-61053812D01*
X147344000Y-61066072D01*
X148462250Y-61063000D01*
X148621000Y-60904250D01*
X148621000Y-59151000D01*
X149067000Y-59151000D01*
X149067000Y-60904250D01*
X149225750Y-61063000D01*
X150344000Y-61066072D01*
X150468482Y-61053812D01*
X150588180Y-61017502D01*
X150698494Y-60958537D01*
X150795185Y-60879185D01*
X150874537Y-60782494D01*
X150933502Y-60672180D01*
X150969812Y-60552482D01*
X150982072Y-60428000D01*
X150979000Y-59309750D01*
X150820250Y-59151000D01*
X149067000Y-59151000D01*
X148621000Y-59151000D01*
X148601000Y-59151000D01*
X148601000Y-58705000D01*
X148621000Y-58705000D01*
X148621000Y-58685000D01*
X149067000Y-58685000D01*
X149067000Y-58705000D01*
X150820250Y-58705000D01*
X150979000Y-58546250D01*
X150981366Y-57685000D01*
X151263214Y-57685000D01*
X151268539Y-62812505D01*
X151254345Y-62957264D01*
X151220174Y-63070445D01*
X151164669Y-63174834D01*
X151089944Y-63266456D01*
X150998848Y-63341818D01*
X150894851Y-63398048D01*
X150781906Y-63433011D01*
X150639298Y-63448000D01*
X56351886Y-63448000D01*
X56236454Y-63436681D01*
X56151751Y-63411109D01*
X56073639Y-63369575D01*
X56005081Y-63313661D01*
X55948686Y-63245491D01*
X55906605Y-63167665D01*
X55880445Y-63083153D01*
X55868520Y-62969701D01*
X55870518Y-60799635D01*
X63173105Y-60799635D01*
X63254654Y-61048940D01*
X63424195Y-61324435D01*
X63644224Y-61561561D01*
X63906287Y-61751205D01*
X64200312Y-61886079D01*
X64515000Y-61961000D01*
X65515000Y-61961000D01*
X65515000Y-60549000D01*
X65961000Y-60549000D01*
X65961000Y-61961000D01*
X66961000Y-61961000D01*
X67275688Y-61886079D01*
X67569713Y-61751205D01*
X67785567Y-61595000D01*
X71624928Y-61595000D01*
X71637188Y-61719482D01*
X71673498Y-61839180D01*
X71732463Y-61949494D01*
X71811815Y-62046185D01*
X71908506Y-62125537D01*
X72018820Y-62184502D01*
X72138518Y-62220812D01*
X72263000Y-62233072D01*
X72770250Y-62230000D01*
X72929000Y-62071250D01*
X72929000Y-60929000D01*
X73375000Y-60929000D01*
X73375000Y-62071250D01*
X73533750Y-62230000D01*
X74041000Y-62233072D01*
X74165482Y-62220812D01*
X74285180Y-62184502D01*
X74395494Y-62125537D01*
X74492185Y-62046185D01*
X74530087Y-62000000D01*
X85319928Y-62000000D01*
X85332188Y-62124482D01*
X85368498Y-62244180D01*
X85427463Y-62354494D01*
X85506815Y-62451185D01*
X85603506Y-62530537D01*
X85713820Y-62589502D01*
X85833518Y-62625812D01*
X85958000Y-62638072D01*
X86486250Y-62635000D01*
X86645000Y-62476250D01*
X86645000Y-61503000D01*
X87091000Y-61503000D01*
X87091000Y-62476250D01*
X87249750Y-62635000D01*
X87778000Y-62638072D01*
X87902482Y-62625812D01*
X88022180Y-62589502D01*
X88132494Y-62530537D01*
X88229185Y-62451185D01*
X88308537Y-62354494D01*
X88367502Y-62244180D01*
X88403812Y-62124482D01*
X88416072Y-62000000D01*
X88413000Y-61661750D01*
X88254250Y-61503000D01*
X87091000Y-61503000D01*
X86645000Y-61503000D01*
X85481750Y-61503000D01*
X85323000Y-61661750D01*
X85319928Y-62000000D01*
X74530087Y-62000000D01*
X74571537Y-61949494D01*
X74630502Y-61839180D01*
X74666812Y-61719482D01*
X74679072Y-61595000D01*
X74676910Y-61238000D01*
X75159928Y-61238000D01*
X75172188Y-61362482D01*
X75208498Y-61482180D01*
X75267463Y-61592494D01*
X75346815Y-61689185D01*
X75443506Y-61768537D01*
X75553820Y-61827502D01*
X75673518Y-61863812D01*
X75798000Y-61876072D01*
X76326250Y-61873000D01*
X76485000Y-61714250D01*
X76485000Y-60741000D01*
X76931000Y-60741000D01*
X76931000Y-61714250D01*
X77089750Y-61873000D01*
X77618000Y-61876072D01*
X77742482Y-61863812D01*
X77862180Y-61827502D01*
X77972494Y-61768537D01*
X78069185Y-61689185D01*
X78148537Y-61592494D01*
X78207502Y-61482180D01*
X78243812Y-61362482D01*
X78256072Y-61238000D01*
X78253000Y-60899750D01*
X78094250Y-60741000D01*
X76931000Y-60741000D01*
X76485000Y-60741000D01*
X75321750Y-60741000D01*
X75163000Y-60899750D01*
X75159928Y-61238000D01*
X74676910Y-61238000D01*
X74676000Y-61087750D01*
X74517250Y-60929000D01*
X73375000Y-60929000D01*
X72929000Y-60929000D01*
X71786750Y-60929000D01*
X71628000Y-61087750D01*
X71624928Y-61595000D01*
X67785567Y-61595000D01*
X67831776Y-61561561D01*
X68051805Y-61324435D01*
X68221346Y-61048940D01*
X68302895Y-60799635D01*
X68201944Y-60560000D01*
X85319928Y-60560000D01*
X85323000Y-60898250D01*
X85481750Y-61057000D01*
X86645000Y-61057000D01*
X86645000Y-60083750D01*
X87091000Y-60083750D01*
X87091000Y-61057000D01*
X88254250Y-61057000D01*
X88413000Y-60898250D01*
X88416072Y-60560000D01*
X88403812Y-60435518D01*
X88367502Y-60315820D01*
X88308537Y-60205506D01*
X88229185Y-60108815D01*
X88132494Y-60029463D01*
X88022180Y-59970498D01*
X87902482Y-59934188D01*
X87778000Y-59921928D01*
X87249750Y-59925000D01*
X87091000Y-60083750D01*
X86645000Y-60083750D01*
X86486250Y-59925000D01*
X85958000Y-59921928D01*
X85833518Y-59934188D01*
X85713820Y-59970498D01*
X85603506Y-60029463D01*
X85506815Y-60108815D01*
X85427463Y-60205506D01*
X85368498Y-60315820D01*
X85332188Y-60435518D01*
X85319928Y-60560000D01*
X68201944Y-60560000D01*
X68197310Y-60549000D01*
X65961000Y-60549000D01*
X65515000Y-60549000D01*
X63278690Y-60549000D01*
X63173105Y-60799635D01*
X55870518Y-60799635D01*
X55871390Y-59852365D01*
X63173105Y-59852365D01*
X63278690Y-60103000D01*
X65515000Y-60103000D01*
X65515000Y-58691000D01*
X64515000Y-58691000D01*
X64200312Y-58765921D01*
X63906287Y-58900795D01*
X63644224Y-59090439D01*
X63424195Y-59327565D01*
X63254654Y-59603060D01*
X63173105Y-59852365D01*
X55871390Y-59852365D01*
X55875077Y-55849000D01*
X61103000Y-55849000D01*
X61103000Y-56849000D01*
X61177921Y-57163688D01*
X61312795Y-57457713D01*
X61502439Y-57719776D01*
X61739565Y-57939805D01*
X62015060Y-58109346D01*
X62264365Y-58190895D01*
X62515000Y-58085310D01*
X62515000Y-55849000D01*
X62961000Y-55849000D01*
X62961000Y-58085310D01*
X63211635Y-58190895D01*
X63460940Y-58109346D01*
X63736435Y-57939805D01*
X63973561Y-57719776D01*
X64163205Y-57457713D01*
X64298079Y-57163688D01*
X64373000Y-56849000D01*
X64373000Y-55849000D01*
X62961000Y-55849000D01*
X62515000Y-55849000D01*
X61103000Y-55849000D01*
X55875077Y-55849000D01*
X55876408Y-54403000D01*
X61103000Y-54403000D01*
X61103000Y-55403000D01*
X62515000Y-55403000D01*
X62515000Y-53166690D01*
X62961000Y-53166690D01*
X62961000Y-55403000D01*
X64373000Y-55403000D01*
X64373000Y-54403000D01*
X64298079Y-54088312D01*
X64163205Y-53794287D01*
X63973561Y-53532224D01*
X63736435Y-53312195D01*
X63460940Y-53142654D01*
X63211635Y-53061105D01*
X62961000Y-53166690D01*
X62515000Y-53166690D01*
X62264365Y-53061105D01*
X62015060Y-53142654D01*
X61739565Y-53312195D01*
X61502439Y-53532224D01*
X61312795Y-53794287D01*
X61177921Y-54088312D01*
X61103000Y-54403000D01*
X55876408Y-54403000D01*
X55881175Y-49227442D01*
X55895422Y-49082136D01*
X55929593Y-48968957D01*
X55985100Y-48864564D01*
X56059823Y-48772944D01*
X56150918Y-48697583D01*
X56254916Y-48641352D01*
X56367862Y-48606389D01*
X56510468Y-48591400D01*
X95200969Y-48591400D01*
X79019369Y-48614000D01*
G37*
G04 #@! TD.AperFunction*
D30*
X100553000Y-57181000D02*
X100573000Y-57181000D01*
X100573000Y-57627000D01*
X100553000Y-57627000D01*
X100553000Y-57647000D01*
X100107000Y-57647000D01*
X100107000Y-57627000D01*
X100087000Y-57627000D01*
X100087000Y-57181000D01*
X100107000Y-57181000D01*
X100107000Y-57161000D01*
X100553000Y-57161000D01*
X100553000Y-57181000D01*
G04 #@! TA.AperFunction,Conductor*
D31*
G36*
X100553000Y-57181000D02*
G01*
X100573000Y-57181000D01*
X100573000Y-57627000D01*
X100553000Y-57627000D01*
X100553000Y-57647000D01*
X100107000Y-57647000D01*
X100107000Y-57627000D01*
X100087000Y-57627000D01*
X100087000Y-57181000D01*
X100107000Y-57181000D01*
X100107000Y-57161000D01*
X100553000Y-57161000D01*
X100553000Y-57181000D01*
G37*
G04 #@! TD.AperFunction*
D30*
X150765064Y-48605622D02*
X150878243Y-48639793D01*
X150982636Y-48695300D01*
X151074256Y-48770023D01*
X151149617Y-48861118D01*
X151205848Y-48965116D01*
X151240811Y-49078062D01*
X151255801Y-49220677D01*
X151255800Y-50518788D01*
X151255772Y-50519076D01*
X151255800Y-50546057D01*
X151255800Y-50573505D01*
X151255829Y-50573798D01*
X151257091Y-51789000D01*
X146998250Y-51789000D01*
X146928250Y-51719000D01*
X145765000Y-51719000D01*
X145765000Y-51739000D01*
X145319000Y-51739000D01*
X145319000Y-51719000D01*
X144155750Y-51719000D01*
X144085750Y-51789000D01*
X141900792Y-51789000D01*
X141907588Y-51720000D01*
X141907588Y-51020262D01*
X141988518Y-51044812D01*
X142113000Y-51057072D01*
X142620250Y-51054000D01*
X142779000Y-50895250D01*
X142779000Y-49753000D01*
X143225000Y-49753000D01*
X143225000Y-50895250D01*
X143383750Y-51054000D01*
X143891000Y-51057072D01*
X143996386Y-51046693D01*
X143997000Y-51114250D01*
X144155750Y-51273000D01*
X145319000Y-51273000D01*
X145319000Y-50299750D01*
X145765000Y-50299750D01*
X145765000Y-51273000D01*
X146928250Y-51273000D01*
X147087000Y-51114250D01*
X147090072Y-50776000D01*
X147077812Y-50651518D01*
X147041502Y-50531820D01*
X146982537Y-50421506D01*
X146903185Y-50324815D01*
X146806494Y-50245463D01*
X146696180Y-50186498D01*
X146576482Y-50150188D01*
X146452000Y-50137928D01*
X145923750Y-50141000D01*
X145765000Y-50299750D01*
X145319000Y-50299750D01*
X145160250Y-50141000D01*
X144632000Y-50137928D01*
X144527432Y-50148227D01*
X144526000Y-49911750D01*
X144367250Y-49753000D01*
X143225000Y-49753000D01*
X142779000Y-49753000D01*
X142759000Y-49753000D01*
X142759000Y-49307000D01*
X142779000Y-49307000D01*
X142779000Y-49287000D01*
X143225000Y-49287000D01*
X143225000Y-49307000D01*
X144367250Y-49307000D01*
X144526000Y-49148250D01*
X144529072Y-48641000D01*
X144524187Y-48591400D01*
X150620016Y-48591400D01*
X150765064Y-48605622D01*
G04 #@! TA.AperFunction,Conductor*
D31*
G36*
X150765064Y-48605622D02*
G01*
X150878243Y-48639793D01*
X150982636Y-48695300D01*
X151074256Y-48770023D01*
X151149617Y-48861118D01*
X151205848Y-48965116D01*
X151240811Y-49078062D01*
X151255801Y-49220677D01*
X151255800Y-50518788D01*
X151255772Y-50519076D01*
X151255800Y-50546057D01*
X151255800Y-50573505D01*
X151255829Y-50573798D01*
X151257091Y-51789000D01*
X146998250Y-51789000D01*
X146928250Y-51719000D01*
X145765000Y-51719000D01*
X145765000Y-51739000D01*
X145319000Y-51739000D01*
X145319000Y-51719000D01*
X144155750Y-51719000D01*
X144085750Y-51789000D01*
X141900792Y-51789000D01*
X141907588Y-51720000D01*
X141907588Y-51020262D01*
X141988518Y-51044812D01*
X142113000Y-51057072D01*
X142620250Y-51054000D01*
X142779000Y-50895250D01*
X142779000Y-49753000D01*
X143225000Y-49753000D01*
X143225000Y-50895250D01*
X143383750Y-51054000D01*
X143891000Y-51057072D01*
X143996386Y-51046693D01*
X143997000Y-51114250D01*
X144155750Y-51273000D01*
X145319000Y-51273000D01*
X145319000Y-50299750D01*
X145765000Y-50299750D01*
X145765000Y-51273000D01*
X146928250Y-51273000D01*
X147087000Y-51114250D01*
X147090072Y-50776000D01*
X147077812Y-50651518D01*
X147041502Y-50531820D01*
X146982537Y-50421506D01*
X146903185Y-50324815D01*
X146806494Y-50245463D01*
X146696180Y-50186498D01*
X146576482Y-50150188D01*
X146452000Y-50137928D01*
X145923750Y-50141000D01*
X145765000Y-50299750D01*
X145319000Y-50299750D01*
X145160250Y-50141000D01*
X144632000Y-50137928D01*
X144527432Y-50148227D01*
X144526000Y-49911750D01*
X144367250Y-49753000D01*
X143225000Y-49753000D01*
X142779000Y-49753000D01*
X142759000Y-49753000D01*
X142759000Y-49307000D01*
X142779000Y-49307000D01*
X142779000Y-49287000D01*
X143225000Y-49287000D01*
X143225000Y-49307000D01*
X144367250Y-49307000D01*
X144526000Y-49148250D01*
X144529072Y-48641000D01*
X144524187Y-48591400D01*
X150620016Y-48591400D01*
X150765064Y-48605622D01*
G37*
G04 #@! TD.AperFunction*
D30*
X106085336Y-52345136D02*
X105862882Y-52584252D01*
X105691352Y-52862172D01*
X105607155Y-53117839D01*
X105712507Y-53371000D01*
X107981000Y-53371000D01*
X107981000Y-53351000D01*
X108427000Y-53351000D01*
X108427000Y-53371000D01*
X108447000Y-53371000D01*
X108447000Y-53817000D01*
X108427000Y-53817000D01*
X108427000Y-53837000D01*
X107981000Y-53837000D01*
X107981000Y-53817000D01*
X105712507Y-53817000D01*
X105607155Y-54070161D01*
X105691352Y-54325828D01*
X105862882Y-54603748D01*
X105986849Y-54737000D01*
X105664000Y-54737000D01*
X105639224Y-54739440D01*
X105615399Y-54746667D01*
X105593443Y-54758403D01*
X105574197Y-54774197D01*
X104595394Y-55753000D01*
X104508070Y-55753000D01*
X104493726Y-55745333D01*
X104392878Y-55714742D01*
X104288000Y-55704412D01*
X102468000Y-55704412D01*
X102363122Y-55714742D01*
X102262274Y-55745333D01*
X102247930Y-55753000D01*
X101857072Y-55753000D01*
X101854000Y-55245750D01*
X101695252Y-55087002D01*
X101837512Y-55087002D01*
X101842188Y-55134482D01*
X101878498Y-55254180D01*
X101937463Y-55364494D01*
X102016815Y-55461185D01*
X102113506Y-55540537D01*
X102223820Y-55599502D01*
X102343518Y-55635812D01*
X102468000Y-55648072D01*
X102996250Y-55645000D01*
X103155000Y-55486250D01*
X103155000Y-54513000D01*
X103601000Y-54513000D01*
X103601000Y-55486250D01*
X103759750Y-55645000D01*
X104288000Y-55648072D01*
X104412482Y-55635812D01*
X104532180Y-55599502D01*
X104642494Y-55540537D01*
X104739185Y-55461185D01*
X104818537Y-55364494D01*
X104877502Y-55254180D01*
X104913812Y-55134482D01*
X104926072Y-55010000D01*
X104923000Y-54671750D01*
X104764250Y-54513000D01*
X103601000Y-54513000D01*
X103155000Y-54513000D01*
X103135000Y-54513000D01*
X103135000Y-54067000D01*
X103155000Y-54067000D01*
X103155000Y-53093750D01*
X103601000Y-53093750D01*
X103601000Y-54067000D01*
X104764250Y-54067000D01*
X104923000Y-53908250D01*
X104926072Y-53570000D01*
X104913812Y-53445518D01*
X104877502Y-53325820D01*
X104818537Y-53215506D01*
X104739185Y-53118815D01*
X104642494Y-53039463D01*
X104532180Y-52980498D01*
X104412482Y-52944188D01*
X104288000Y-52931928D01*
X103759750Y-52935000D01*
X103601000Y-53093750D01*
X103155000Y-53093750D01*
X102996250Y-52935000D01*
X102468000Y-52931928D01*
X102343518Y-52944188D01*
X102223820Y-52980498D01*
X102113506Y-53039463D01*
X102016815Y-53118815D01*
X101937463Y-53215506D01*
X101878498Y-53325820D01*
X101842188Y-53445518D01*
X101829928Y-53570000D01*
X101832095Y-53808595D01*
X101808502Y-53730820D01*
X101749537Y-53620506D01*
X101670185Y-53523815D01*
X101573494Y-53444463D01*
X101463180Y-53385498D01*
X101343482Y-53349188D01*
X101219000Y-53336928D01*
X100711750Y-53340000D01*
X100553000Y-53498750D01*
X100553000Y-54641000D01*
X100573000Y-54641000D01*
X100573000Y-55087000D01*
X100553000Y-55087000D01*
X100553000Y-55107000D01*
X100107000Y-55107000D01*
X100107000Y-55087000D01*
X98964750Y-55087000D01*
X98806000Y-55245750D01*
X98802928Y-55753000D01*
X98679000Y-55753000D01*
X98679000Y-53975000D01*
X98802928Y-53975000D01*
X98806000Y-54482250D01*
X98964750Y-54641000D01*
X100107000Y-54641000D01*
X100107000Y-53498750D01*
X99948250Y-53340000D01*
X99441000Y-53336928D01*
X99316518Y-53349188D01*
X99196820Y-53385498D01*
X99086506Y-53444463D01*
X98989815Y-53523815D01*
X98910463Y-53620506D01*
X98851498Y-53730820D01*
X98815188Y-53850518D01*
X98802928Y-53975000D01*
X98679000Y-53975000D01*
X98679000Y-52197000D01*
X106290601Y-52197000D01*
X106085336Y-52345136D01*
G04 #@! TA.AperFunction,Conductor*
D31*
G36*
X106085336Y-52345136D02*
G01*
X105862882Y-52584252D01*
X105691352Y-52862172D01*
X105607155Y-53117839D01*
X105712507Y-53371000D01*
X107981000Y-53371000D01*
X107981000Y-53351000D01*
X108427000Y-53351000D01*
X108427000Y-53371000D01*
X108447000Y-53371000D01*
X108447000Y-53817000D01*
X108427000Y-53817000D01*
X108427000Y-53837000D01*
X107981000Y-53837000D01*
X107981000Y-53817000D01*
X105712507Y-53817000D01*
X105607155Y-54070161D01*
X105691352Y-54325828D01*
X105862882Y-54603748D01*
X105986849Y-54737000D01*
X105664000Y-54737000D01*
X105639224Y-54739440D01*
X105615399Y-54746667D01*
X105593443Y-54758403D01*
X105574197Y-54774197D01*
X104595394Y-55753000D01*
X104508070Y-55753000D01*
X104493726Y-55745333D01*
X104392878Y-55714742D01*
X104288000Y-55704412D01*
X102468000Y-55704412D01*
X102363122Y-55714742D01*
X102262274Y-55745333D01*
X102247930Y-55753000D01*
X101857072Y-55753000D01*
X101854000Y-55245750D01*
X101695252Y-55087002D01*
X101837512Y-55087002D01*
X101842188Y-55134482D01*
X101878498Y-55254180D01*
X101937463Y-55364494D01*
X102016815Y-55461185D01*
X102113506Y-55540537D01*
X102223820Y-55599502D01*
X102343518Y-55635812D01*
X102468000Y-55648072D01*
X102996250Y-55645000D01*
X103155000Y-55486250D01*
X103155000Y-54513000D01*
X103601000Y-54513000D01*
X103601000Y-55486250D01*
X103759750Y-55645000D01*
X104288000Y-55648072D01*
X104412482Y-55635812D01*
X104532180Y-55599502D01*
X104642494Y-55540537D01*
X104739185Y-55461185D01*
X104818537Y-55364494D01*
X104877502Y-55254180D01*
X104913812Y-55134482D01*
X104926072Y-55010000D01*
X104923000Y-54671750D01*
X104764250Y-54513000D01*
X103601000Y-54513000D01*
X103155000Y-54513000D01*
X103135000Y-54513000D01*
X103135000Y-54067000D01*
X103155000Y-54067000D01*
X103155000Y-53093750D01*
X103601000Y-53093750D01*
X103601000Y-54067000D01*
X104764250Y-54067000D01*
X104923000Y-53908250D01*
X104926072Y-53570000D01*
X104913812Y-53445518D01*
X104877502Y-53325820D01*
X104818537Y-53215506D01*
X104739185Y-53118815D01*
X104642494Y-53039463D01*
X104532180Y-52980498D01*
X104412482Y-52944188D01*
X104288000Y-52931928D01*
X103759750Y-52935000D01*
X103601000Y-53093750D01*
X103155000Y-53093750D01*
X102996250Y-52935000D01*
X102468000Y-52931928D01*
X102343518Y-52944188D01*
X102223820Y-52980498D01*
X102113506Y-53039463D01*
X102016815Y-53118815D01*
X101937463Y-53215506D01*
X101878498Y-53325820D01*
X101842188Y-53445518D01*
X101829928Y-53570000D01*
X101832095Y-53808595D01*
X101808502Y-53730820D01*
X101749537Y-53620506D01*
X101670185Y-53523815D01*
X101573494Y-53444463D01*
X101463180Y-53385498D01*
X101343482Y-53349188D01*
X101219000Y-53336928D01*
X100711750Y-53340000D01*
X100553000Y-53498750D01*
X100553000Y-54641000D01*
X100573000Y-54641000D01*
X100573000Y-55087000D01*
X100553000Y-55087000D01*
X100553000Y-55107000D01*
X100107000Y-55107000D01*
X100107000Y-55087000D01*
X98964750Y-55087000D01*
X98806000Y-55245750D01*
X98802928Y-55753000D01*
X98679000Y-55753000D01*
X98679000Y-53975000D01*
X98802928Y-53975000D01*
X98806000Y-54482250D01*
X98964750Y-54641000D01*
X100107000Y-54641000D01*
X100107000Y-53498750D01*
X99948250Y-53340000D01*
X99441000Y-53336928D01*
X99316518Y-53349188D01*
X99196820Y-53385498D01*
X99086506Y-53444463D01*
X98989815Y-53523815D01*
X98910463Y-53620506D01*
X98851498Y-53730820D01*
X98815188Y-53850518D01*
X98802928Y-53975000D01*
X98679000Y-53975000D01*
X98679000Y-52197000D01*
X106290601Y-52197000D01*
X106085336Y-52345136D01*
G37*
G04 #@! TD.AperFunction*
D30*
X144275245Y-52454376D02*
X144328605Y-52519395D01*
X144393624Y-52572755D01*
X144467804Y-52612405D01*
X144548293Y-52636822D01*
X144632000Y-52645066D01*
X146452000Y-52645066D01*
X146535707Y-52636822D01*
X146616196Y-52612405D01*
X146690376Y-52572755D01*
X146755395Y-52519395D01*
X146808755Y-52454376D01*
X146810560Y-52451000D01*
X151365779Y-52451000D01*
X151370527Y-57023000D01*
X150479863Y-57023000D01*
X150427707Y-57007178D01*
X150344000Y-56998934D01*
X147344000Y-56998934D01*
X147260293Y-57007178D01*
X147208137Y-57023000D01*
X146766250Y-57023000D01*
X146833000Y-56956250D01*
X146836072Y-56618000D01*
X146823812Y-56493518D01*
X146815913Y-56467480D01*
X146892815Y-56561185D01*
X146989506Y-56640537D01*
X147099820Y-56699502D01*
X147219518Y-56735812D01*
X147344000Y-56748072D01*
X148462250Y-56745000D01*
X148621000Y-56586250D01*
X148621000Y-54833000D01*
X149067000Y-54833000D01*
X149067000Y-56586250D01*
X149225750Y-56745000D01*
X150344000Y-56748072D01*
X150468482Y-56735812D01*
X150588180Y-56699502D01*
X150698494Y-56640537D01*
X150795185Y-56561185D01*
X150874537Y-56464494D01*
X150933502Y-56354180D01*
X150969812Y-56234482D01*
X150982072Y-56110000D01*
X150979000Y-54991750D01*
X150820250Y-54833000D01*
X149067000Y-54833000D01*
X148621000Y-54833000D01*
X148601000Y-54833000D01*
X148601000Y-54387000D01*
X148621000Y-54387000D01*
X148621000Y-52633750D01*
X149067000Y-52633750D01*
X149067000Y-54387000D01*
X150820250Y-54387000D01*
X150979000Y-54228250D01*
X150982072Y-53110000D01*
X150969812Y-52985518D01*
X150933502Y-52865820D01*
X150874537Y-52755506D01*
X150795185Y-52658815D01*
X150698494Y-52579463D01*
X150588180Y-52520498D01*
X150468482Y-52484188D01*
X150344000Y-52471928D01*
X149225750Y-52475000D01*
X149067000Y-52633750D01*
X148621000Y-52633750D01*
X148462250Y-52475000D01*
X147344000Y-52471928D01*
X147219518Y-52484188D01*
X147099820Y-52520498D01*
X146989506Y-52579463D01*
X146892815Y-52658815D01*
X146813463Y-52755506D01*
X146754498Y-52865820D01*
X146748273Y-52886342D01*
X146696180Y-52858498D01*
X146576482Y-52822188D01*
X146452000Y-52809928D01*
X145923750Y-52813000D01*
X145765000Y-52971750D01*
X145765000Y-53945000D01*
X145785000Y-53945000D01*
X145785000Y-54391000D01*
X145765000Y-54391000D01*
X145765000Y-55364250D01*
X145923750Y-55523000D01*
X146452000Y-55526072D01*
X146576482Y-55513812D01*
X146696180Y-55477502D01*
X146707682Y-55471354D01*
X146705928Y-56110000D01*
X146718188Y-56234482D01*
X146726087Y-56260520D01*
X146649185Y-56166815D01*
X146552494Y-56087463D01*
X146442180Y-56028498D01*
X146322482Y-55992188D01*
X146198000Y-55979928D01*
X145669750Y-55983000D01*
X145511000Y-56141750D01*
X145511000Y-57115000D01*
X145531000Y-57115000D01*
X145531000Y-57561000D01*
X145511000Y-57561000D01*
X145511000Y-57581000D01*
X145065000Y-57581000D01*
X145065000Y-57561000D01*
X145045000Y-57561000D01*
X145045000Y-57115000D01*
X145065000Y-57115000D01*
X145065000Y-56141750D01*
X144906250Y-55983000D01*
X144378000Y-55979928D01*
X144253518Y-55992188D01*
X144133820Y-56028498D01*
X144023506Y-56087463D01*
X143926815Y-56166815D01*
X143847463Y-56263506D01*
X143788498Y-56373820D01*
X143752188Y-56493518D01*
X143739928Y-56618000D01*
X143743000Y-56956250D01*
X143809750Y-57023000D01*
X143256955Y-57023000D01*
X143326185Y-56966185D01*
X143405537Y-56869494D01*
X143464502Y-56759180D01*
X143500812Y-56639482D01*
X143513072Y-56515000D01*
X143510000Y-56007750D01*
X143351250Y-55849000D01*
X142209000Y-55849000D01*
X142209000Y-55869000D01*
X141763000Y-55869000D01*
X141763000Y-55849000D01*
X141743000Y-55849000D01*
X141743000Y-55403000D01*
X141763000Y-55403000D01*
X141763000Y-54260750D01*
X142209000Y-54260750D01*
X142209000Y-55403000D01*
X143351250Y-55403000D01*
X143510000Y-55244250D01*
X143512157Y-54888000D01*
X143993928Y-54888000D01*
X144006188Y-55012482D01*
X144042498Y-55132180D01*
X144101463Y-55242494D01*
X144180815Y-55339185D01*
X144277506Y-55418537D01*
X144387820Y-55477502D01*
X144507518Y-55513812D01*
X144632000Y-55526072D01*
X145160250Y-55523000D01*
X145319000Y-55364250D01*
X145319000Y-54391000D01*
X144155750Y-54391000D01*
X143997000Y-54549750D01*
X143993928Y-54888000D01*
X143512157Y-54888000D01*
X143513072Y-54737000D01*
X143500812Y-54612518D01*
X143464502Y-54492820D01*
X143405537Y-54382506D01*
X143326185Y-54285815D01*
X143229494Y-54206463D01*
X143119180Y-54147498D01*
X142999482Y-54111188D01*
X142875000Y-54098928D01*
X142367750Y-54102000D01*
X142209000Y-54260750D01*
X141763000Y-54260750D01*
X141604250Y-54102000D01*
X141097000Y-54098928D01*
X140972518Y-54111188D01*
X140852820Y-54147498D01*
X140742506Y-54206463D01*
X140645815Y-54285815D01*
X140589000Y-54355044D01*
X140589000Y-53854250D01*
X140747000Y-53696250D01*
X140747000Y-53043000D01*
X141193000Y-53043000D01*
X141193000Y-53696250D01*
X141351750Y-53855000D01*
X141370000Y-53858072D01*
X141494482Y-53845812D01*
X141614180Y-53809502D01*
X141724494Y-53750537D01*
X141821185Y-53671185D01*
X141900537Y-53574494D01*
X141959502Y-53464180D01*
X141964410Y-53448000D01*
X143993928Y-53448000D01*
X143997000Y-53786250D01*
X144155750Y-53945000D01*
X145319000Y-53945000D01*
X145319000Y-52971750D01*
X145160250Y-52813000D01*
X144632000Y-52809928D01*
X144507518Y-52822188D01*
X144387820Y-52858498D01*
X144277506Y-52917463D01*
X144180815Y-52996815D01*
X144101463Y-53093506D01*
X144042498Y-53203820D01*
X144006188Y-53323518D01*
X143993928Y-53448000D01*
X141964410Y-53448000D01*
X141995812Y-53344482D01*
X142008072Y-53220000D01*
X142005000Y-53201750D01*
X141846250Y-53043000D01*
X141193000Y-53043000D01*
X140747000Y-53043000D01*
X140727000Y-53043000D01*
X140727000Y-52597000D01*
X140747000Y-52597000D01*
X140747000Y-52577000D01*
X141193000Y-52577000D01*
X141193000Y-52597000D01*
X141846250Y-52597000D01*
X141992250Y-52451000D01*
X144273440Y-52451000D01*
X144275245Y-52454376D01*
G04 #@! TA.AperFunction,Conductor*
D31*
G36*
X144275245Y-52454376D02*
G01*
X144328605Y-52519395D01*
X144393624Y-52572755D01*
X144467804Y-52612405D01*
X144548293Y-52636822D01*
X144632000Y-52645066D01*
X146452000Y-52645066D01*
X146535707Y-52636822D01*
X146616196Y-52612405D01*
X146690376Y-52572755D01*
X146755395Y-52519395D01*
X146808755Y-52454376D01*
X146810560Y-52451000D01*
X151365779Y-52451000D01*
X151370527Y-57023000D01*
X150479863Y-57023000D01*
X150427707Y-57007178D01*
X150344000Y-56998934D01*
X147344000Y-56998934D01*
X147260293Y-57007178D01*
X147208137Y-57023000D01*
X146766250Y-57023000D01*
X146833000Y-56956250D01*
X146836072Y-56618000D01*
X146823812Y-56493518D01*
X146815913Y-56467480D01*
X146892815Y-56561185D01*
X146989506Y-56640537D01*
X147099820Y-56699502D01*
X147219518Y-56735812D01*
X147344000Y-56748072D01*
X148462250Y-56745000D01*
X148621000Y-56586250D01*
X148621000Y-54833000D01*
X149067000Y-54833000D01*
X149067000Y-56586250D01*
X149225750Y-56745000D01*
X150344000Y-56748072D01*
X150468482Y-56735812D01*
X150588180Y-56699502D01*
X150698494Y-56640537D01*
X150795185Y-56561185D01*
X150874537Y-56464494D01*
X150933502Y-56354180D01*
X150969812Y-56234482D01*
X150982072Y-56110000D01*
X150979000Y-54991750D01*
X150820250Y-54833000D01*
X149067000Y-54833000D01*
X148621000Y-54833000D01*
X148601000Y-54833000D01*
X148601000Y-54387000D01*
X148621000Y-54387000D01*
X148621000Y-52633750D01*
X149067000Y-52633750D01*
X149067000Y-54387000D01*
X150820250Y-54387000D01*
X150979000Y-54228250D01*
X150982072Y-53110000D01*
X150969812Y-52985518D01*
X150933502Y-52865820D01*
X150874537Y-52755506D01*
X150795185Y-52658815D01*
X150698494Y-52579463D01*
X150588180Y-52520498D01*
X150468482Y-52484188D01*
X150344000Y-52471928D01*
X149225750Y-52475000D01*
X149067000Y-52633750D01*
X148621000Y-52633750D01*
X148462250Y-52475000D01*
X147344000Y-52471928D01*
X147219518Y-52484188D01*
X147099820Y-52520498D01*
X146989506Y-52579463D01*
X146892815Y-52658815D01*
X146813463Y-52755506D01*
X146754498Y-52865820D01*
X146748273Y-52886342D01*
X146696180Y-52858498D01*
X146576482Y-52822188D01*
X146452000Y-52809928D01*
X145923750Y-52813000D01*
X145765000Y-52971750D01*
X145765000Y-53945000D01*
X145785000Y-53945000D01*
X145785000Y-54391000D01*
X145765000Y-54391000D01*
X145765000Y-55364250D01*
X145923750Y-55523000D01*
X146452000Y-55526072D01*
X146576482Y-55513812D01*
X146696180Y-55477502D01*
X146707682Y-55471354D01*
X146705928Y-56110000D01*
X146718188Y-56234482D01*
X146726087Y-56260520D01*
X146649185Y-56166815D01*
X146552494Y-56087463D01*
X146442180Y-56028498D01*
X146322482Y-55992188D01*
X146198000Y-55979928D01*
X145669750Y-55983000D01*
X145511000Y-56141750D01*
X145511000Y-57115000D01*
X145531000Y-57115000D01*
X145531000Y-57561000D01*
X145511000Y-57561000D01*
X145511000Y-57581000D01*
X145065000Y-57581000D01*
X145065000Y-57561000D01*
X145045000Y-57561000D01*
X145045000Y-57115000D01*
X145065000Y-57115000D01*
X145065000Y-56141750D01*
X144906250Y-55983000D01*
X144378000Y-55979928D01*
X144253518Y-55992188D01*
X144133820Y-56028498D01*
X144023506Y-56087463D01*
X143926815Y-56166815D01*
X143847463Y-56263506D01*
X143788498Y-56373820D01*
X143752188Y-56493518D01*
X143739928Y-56618000D01*
X143743000Y-56956250D01*
X143809750Y-57023000D01*
X143256955Y-57023000D01*
X143326185Y-56966185D01*
X143405537Y-56869494D01*
X143464502Y-56759180D01*
X143500812Y-56639482D01*
X143513072Y-56515000D01*
X143510000Y-56007750D01*
X143351250Y-55849000D01*
X142209000Y-55849000D01*
X142209000Y-55869000D01*
X141763000Y-55869000D01*
X141763000Y-55849000D01*
X141743000Y-55849000D01*
X141743000Y-55403000D01*
X141763000Y-55403000D01*
X141763000Y-54260750D01*
X142209000Y-54260750D01*
X142209000Y-55403000D01*
X143351250Y-55403000D01*
X143510000Y-55244250D01*
X143512157Y-54888000D01*
X143993928Y-54888000D01*
X144006188Y-55012482D01*
X144042498Y-55132180D01*
X144101463Y-55242494D01*
X144180815Y-55339185D01*
X144277506Y-55418537D01*
X144387820Y-55477502D01*
X144507518Y-55513812D01*
X144632000Y-55526072D01*
X145160250Y-55523000D01*
X145319000Y-55364250D01*
X145319000Y-54391000D01*
X144155750Y-54391000D01*
X143997000Y-54549750D01*
X143993928Y-54888000D01*
X143512157Y-54888000D01*
X143513072Y-54737000D01*
X143500812Y-54612518D01*
X143464502Y-54492820D01*
X143405537Y-54382506D01*
X143326185Y-54285815D01*
X143229494Y-54206463D01*
X143119180Y-54147498D01*
X142999482Y-54111188D01*
X142875000Y-54098928D01*
X142367750Y-54102000D01*
X142209000Y-54260750D01*
X141763000Y-54260750D01*
X141604250Y-54102000D01*
X141097000Y-54098928D01*
X140972518Y-54111188D01*
X140852820Y-54147498D01*
X140742506Y-54206463D01*
X140645815Y-54285815D01*
X140589000Y-54355044D01*
X140589000Y-53854250D01*
X140747000Y-53696250D01*
X140747000Y-53043000D01*
X141193000Y-53043000D01*
X141193000Y-53696250D01*
X141351750Y-53855000D01*
X141370000Y-53858072D01*
X141494482Y-53845812D01*
X141614180Y-53809502D01*
X141724494Y-53750537D01*
X141821185Y-53671185D01*
X141900537Y-53574494D01*
X141959502Y-53464180D01*
X141964410Y-53448000D01*
X143993928Y-53448000D01*
X143997000Y-53786250D01*
X144155750Y-53945000D01*
X145319000Y-53945000D01*
X145319000Y-52971750D01*
X145160250Y-52813000D01*
X144632000Y-52809928D01*
X144507518Y-52822188D01*
X144387820Y-52858498D01*
X144277506Y-52917463D01*
X144180815Y-52996815D01*
X144101463Y-53093506D01*
X144042498Y-53203820D01*
X144006188Y-53323518D01*
X143993928Y-53448000D01*
X141964410Y-53448000D01*
X141995812Y-53344482D01*
X142008072Y-53220000D01*
X142005000Y-53201750D01*
X141846250Y-53043000D01*
X141193000Y-53043000D01*
X140747000Y-53043000D01*
X140727000Y-53043000D01*
X140727000Y-52597000D01*
X140747000Y-52597000D01*
X140747000Y-52577000D01*
X141193000Y-52577000D01*
X141193000Y-52597000D01*
X141846250Y-52597000D01*
X141992250Y-52451000D01*
X144273440Y-52451000D01*
X144275245Y-52454376D01*
G37*
G04 #@! TD.AperFunction*
M02*
