G04 #@! TF.GenerationSoftware,KiCad,Pcbnew,5.1.10*
G04 #@! TF.CreationDate,2021-12-17T17:44:36+03:00*
G04 #@! TF.ProjectId,ripple_cancellation,72697070-6c65-45f6-9361-6e63656c6c61,rev?*
G04 #@! TF.SameCoordinates,Original*
G04 #@! TF.FileFunction,Legend,Top*
G04 #@! TF.FilePolarity,Positive*
%FSLAX46Y46*%
G04 Gerber Fmt 4.6, Leading zero omitted, Abs format (unit mm)*
G04 Created by KiCad (PCBNEW 5.1.10) date 2021-12-17 17:44:36*
%MOMM*%
%LPD*%
G01*
G04 APERTURE LIST*
%ADD10C,0.254000*%
%ADD11C,0.127000*%
%ADD12C,0.200000*%
%ADD13C,0.120000*%
%ADD14C,0.150000*%
G04 APERTURE END LIST*
D10*
X121539000Y-50419000D02*
X121539000Y-61849000D01*
X121539000Y-61849000D02*
X112649000Y-61849000D01*
X112649000Y-61849000D02*
X112649000Y-50419000D01*
X112649000Y-50419000D02*
X121539000Y-50419000D01*
D11*
X96588000Y-51274000D02*
X96588000Y-57495000D01*
X96588000Y-57495000D02*
X89848000Y-57495000D01*
X89848000Y-57495000D02*
X89848000Y-51274000D01*
X141541500Y-51816000D02*
X141541500Y-52324000D01*
X140398500Y-51816000D02*
X140398500Y-52324000D01*
X84578999Y-57859000D02*
G75*
G02*
X83059000Y-58609000I-1739129J1609369D01*
G01*
X83059000Y-58609000D02*
G75*
G02*
X80639000Y-56134000I27500J2447500D01*
G01*
X80639000Y-56134000D02*
G75*
G02*
X83059000Y-53659000I2447500J27500D01*
G01*
X84578999Y-54409000D02*
G75*
G03*
X83059000Y-53659000I-1739129J-1609369D01*
G01*
D12*
X85209000Y-57384000D02*
G75*
G03*
X85209000Y-57384000I-100000J0D01*
G01*
D11*
X84579000Y-57859000D02*
X84579000Y-54409000D01*
X139192000Y-48260000D02*
X144272000Y-48260000D01*
X139192000Y-50800000D02*
X144272000Y-50800000D01*
X139192000Y-48260000D02*
X139192000Y-50800000D01*
X144272000Y-48260000D02*
X144272000Y-50800000D01*
D13*
X144272000Y-48260000D02*
X145008600Y-48260000D01*
X145008600Y-48260000D02*
X145008600Y-50774600D01*
X145008600Y-50774600D02*
X145008600Y-50825400D01*
X145008600Y-50825400D02*
X144272000Y-50825400D01*
X144272000Y-50825400D02*
X144272000Y-50800000D01*
X138201400Y-49047400D02*
X138201400Y-50139600D01*
X137668000Y-49555400D02*
X138760200Y-49555400D01*
D11*
X144642000Y-53122000D02*
X144642000Y-52542000D01*
X146442000Y-53122000D02*
X146442000Y-52542000D01*
X87439500Y-55118000D02*
X87439500Y-55626000D01*
X86296500Y-55118000D02*
X86296500Y-55626000D01*
D13*
X143764000Y-59309000D02*
G75*
G03*
X143764000Y-59309000I-127000J0D01*
G01*
D11*
X140716000Y-59436000D02*
X140716000Y-54356000D01*
X143256000Y-59436000D02*
X143256000Y-54356000D01*
X140716000Y-59436000D02*
X143256000Y-59436000D01*
X140716000Y-54356000D02*
X143256000Y-54356000D01*
D13*
X102108000Y-58547000D02*
G75*
G03*
X102108000Y-58547000I-127000J0D01*
G01*
D11*
X99060000Y-58674000D02*
X99060000Y-53594000D01*
X101600000Y-58674000D02*
X101600000Y-53594000D01*
X99060000Y-58674000D02*
X101600000Y-58674000D01*
X99060000Y-53594000D02*
X101600000Y-53594000D01*
D13*
X74930000Y-61849000D02*
G75*
G03*
X74930000Y-61849000I-127000J0D01*
G01*
D11*
X71882000Y-61976000D02*
X71882000Y-56896000D01*
X74422000Y-61976000D02*
X74422000Y-56896000D01*
X71882000Y-61976000D02*
X74422000Y-61976000D01*
X71882000Y-56896000D02*
X74422000Y-56896000D01*
D12*
X70938000Y-55626000D02*
G75*
G03*
X70938000Y-55626000I-100000J0D01*
G01*
D11*
X55038000Y-60126000D02*
X55038000Y-51126000D01*
X55038000Y-51126000D02*
X69438000Y-51126000D01*
X69438000Y-60126000D02*
X68058000Y-60126000D01*
X63418000Y-60126000D02*
X55038000Y-60126000D01*
X69438000Y-60126000D02*
X69438000Y-58146000D01*
X69438000Y-51126000D02*
X69438000Y-53106000D01*
X146188000Y-58384000D02*
X146188000Y-58964000D01*
X144388000Y-58384000D02*
X144388000Y-58964000D01*
X102652000Y-61352000D02*
X102072000Y-61352000D01*
X102652000Y-59552000D02*
X102072000Y-59552000D01*
D13*
X134874000Y-53340000D02*
X134366000Y-53340000D01*
X134620000Y-53086000D02*
X134620000Y-53594000D01*
X134620000Y-50546000D02*
X134620000Y-51054000D01*
D11*
X138786000Y-52070000D02*
G75*
G03*
X138786000Y-52070000I-3150000J0D01*
G01*
D13*
X136398000Y-58420000D02*
X136906000Y-58420000D01*
X136652000Y-58674000D02*
X136652000Y-58166000D01*
X136652000Y-61214000D02*
X136652000Y-60706000D01*
D11*
X138786000Y-59690000D02*
G75*
G03*
X138786000Y-59690000I-3150000J0D01*
G01*
X104278000Y-55336000D02*
X104278000Y-55916000D01*
X102478000Y-55336000D02*
X102478000Y-55916000D01*
X87768000Y-59654000D02*
X87768000Y-60234000D01*
X85968000Y-59654000D02*
X85968000Y-60234000D01*
X77608000Y-58892000D02*
X77608000Y-59472000D01*
X75808000Y-58892000D02*
X75808000Y-59472000D01*
D13*
X73914000Y-52324000D02*
X73914000Y-51816000D01*
X74168000Y-52070000D02*
X73660000Y-52070000D01*
X76708000Y-52070000D02*
X76200000Y-52070000D01*
D11*
X78334000Y-53086000D02*
G75*
G03*
X78334000Y-53086000I-3150000J0D01*
G01*
D14*
X116389982Y-49866679D02*
X116957205Y-49866679D01*
X117023937Y-49833313D01*
X117057303Y-49799947D01*
X117090669Y-49733215D01*
X117090669Y-49599751D01*
X117057303Y-49533019D01*
X117023937Y-49499653D01*
X116957205Y-49466287D01*
X116389982Y-49466287D01*
X116456714Y-49165992D02*
X116423348Y-49132626D01*
X116389982Y-49065894D01*
X116389982Y-48899064D01*
X116423348Y-48832332D01*
X116456714Y-48798966D01*
X116523446Y-48765600D01*
X116590178Y-48765600D01*
X116690276Y-48798966D01*
X117090669Y-49199358D01*
X117090669Y-48765600D01*
X93457095Y-40979380D02*
X93457095Y-41788904D01*
X93504714Y-41884142D01*
X93552333Y-41931761D01*
X93647571Y-41979380D01*
X93838047Y-41979380D01*
X93933285Y-41931761D01*
X93980904Y-41884142D01*
X94028523Y-41788904D01*
X94028523Y-40979380D01*
X95028523Y-41979380D02*
X94457095Y-41979380D01*
X94742809Y-41979380D02*
X94742809Y-40979380D01*
X94647571Y-41122238D01*
X94552333Y-41217476D01*
X94457095Y-41265095D01*
X140152380Y-51982666D02*
X139676190Y-52316000D01*
X140152380Y-52554095D02*
X139152380Y-52554095D01*
X139152380Y-52173142D01*
X139200000Y-52077904D01*
X139247619Y-52030285D01*
X139342857Y-51982666D01*
X139485714Y-51982666D01*
X139580952Y-52030285D01*
X139628571Y-52077904D01*
X139676190Y-52173142D01*
X139676190Y-52554095D01*
X139247619Y-51601714D02*
X139200000Y-51554095D01*
X139152380Y-51458857D01*
X139152380Y-51220761D01*
X139200000Y-51125523D01*
X139247619Y-51077904D01*
X139342857Y-51030285D01*
X139438095Y-51030285D01*
X139580952Y-51077904D01*
X140152380Y-51649333D01*
X140152380Y-51030285D01*
X80021619Y-55554238D02*
X79974000Y-55649476D01*
X79878761Y-55744714D01*
X79735904Y-55887571D01*
X79688285Y-55982809D01*
X79688285Y-56078047D01*
X79926380Y-56030428D02*
X79878761Y-56125666D01*
X79783523Y-56220904D01*
X79593047Y-56268523D01*
X79259714Y-56268523D01*
X79069238Y-56220904D01*
X78974000Y-56125666D01*
X78926380Y-56030428D01*
X78926380Y-55839952D01*
X78974000Y-55744714D01*
X79069238Y-55649476D01*
X79259714Y-55601857D01*
X79593047Y-55601857D01*
X79783523Y-55649476D01*
X79878761Y-55744714D01*
X79926380Y-55839952D01*
X79926380Y-56030428D01*
X79926380Y-54649476D02*
X79926380Y-55220904D01*
X79926380Y-54935190D02*
X78926380Y-54935190D01*
X79069238Y-55030428D01*
X79164476Y-55125666D01*
X79212095Y-55220904D01*
X145311904Y-49728380D02*
X145311904Y-48728380D01*
X145550000Y-48728380D01*
X145692857Y-48776000D01*
X145788095Y-48871238D01*
X145835714Y-48966476D01*
X145883333Y-49156952D01*
X145883333Y-49299809D01*
X145835714Y-49490285D01*
X145788095Y-49585523D01*
X145692857Y-49680761D01*
X145550000Y-49728380D01*
X145311904Y-49728380D01*
X146835714Y-49728380D02*
X146264285Y-49728380D01*
X146550000Y-49728380D02*
X146550000Y-48728380D01*
X146454761Y-48871238D01*
X146359523Y-48966476D01*
X146264285Y-49014095D01*
X147661333Y-51919142D02*
X147613714Y-51966761D01*
X147470857Y-52014380D01*
X147375619Y-52014380D01*
X147232761Y-51966761D01*
X147137523Y-51871523D01*
X147089904Y-51776285D01*
X147042285Y-51585809D01*
X147042285Y-51442952D01*
X147089904Y-51252476D01*
X147137523Y-51157238D01*
X147232761Y-51062000D01*
X147375619Y-51014380D01*
X147470857Y-51014380D01*
X147613714Y-51062000D01*
X147661333Y-51109619D01*
X148137523Y-52014380D02*
X148328000Y-52014380D01*
X148423238Y-51966761D01*
X148470857Y-51919142D01*
X148566095Y-51776285D01*
X148613714Y-51585809D01*
X148613714Y-51204857D01*
X148566095Y-51109619D01*
X148518476Y-51062000D01*
X148423238Y-51014380D01*
X148232761Y-51014380D01*
X148137523Y-51062000D01*
X148089904Y-51109619D01*
X148042285Y-51204857D01*
X148042285Y-51442952D01*
X148089904Y-51538190D01*
X148137523Y-51585809D01*
X148232761Y-51633428D01*
X148423238Y-51633428D01*
X148518476Y-51585809D01*
X148566095Y-51538190D01*
X148613714Y-51442952D01*
X149312380Y-62055333D02*
X150026666Y-62055333D01*
X150169523Y-62102952D01*
X150264761Y-62198190D01*
X150312380Y-62341047D01*
X150312380Y-62436285D01*
X149312380Y-61102952D02*
X149312380Y-61579142D01*
X149788571Y-61626761D01*
X149740952Y-61579142D01*
X149693333Y-61483904D01*
X149693333Y-61245809D01*
X149740952Y-61150571D01*
X149788571Y-61102952D01*
X149883809Y-61055333D01*
X150121904Y-61055333D01*
X150217142Y-61102952D01*
X150264761Y-61150571D01*
X150312380Y-61245809D01*
X150312380Y-61483904D01*
X150264761Y-61579142D01*
X150217142Y-61626761D01*
X87574380Y-52998666D02*
X87098190Y-53332000D01*
X87574380Y-53570095D02*
X86574380Y-53570095D01*
X86574380Y-53189142D01*
X86622000Y-53093904D01*
X86669619Y-53046285D01*
X86764857Y-52998666D01*
X86907714Y-52998666D01*
X87002952Y-53046285D01*
X87050571Y-53093904D01*
X87098190Y-53189142D01*
X87098190Y-53570095D01*
X87574380Y-52046285D02*
X87574380Y-52617714D01*
X87574380Y-52332000D02*
X86574380Y-52332000D01*
X86717238Y-52427238D01*
X86812476Y-52522476D01*
X86860095Y-52617714D01*
X141144666Y-53046380D02*
X141144666Y-53760666D01*
X141097047Y-53903523D01*
X141001809Y-53998761D01*
X140858952Y-54046380D01*
X140763714Y-54046380D01*
X142049428Y-53379714D02*
X142049428Y-54046380D01*
X141811333Y-52998761D02*
X141573238Y-53713047D01*
X142192285Y-53713047D01*
X99742666Y-52030380D02*
X99742666Y-52744666D01*
X99695047Y-52887523D01*
X99599809Y-52982761D01*
X99456952Y-53030380D01*
X99361714Y-53030380D01*
X100123619Y-52030380D02*
X100742666Y-52030380D01*
X100409333Y-52411333D01*
X100552190Y-52411333D01*
X100647428Y-52458952D01*
X100695047Y-52506571D01*
X100742666Y-52601809D01*
X100742666Y-52839904D01*
X100695047Y-52935142D01*
X100647428Y-52982761D01*
X100552190Y-53030380D01*
X100266476Y-53030380D01*
X100171238Y-52982761D01*
X100123619Y-52935142D01*
X70318380Y-61547333D02*
X71032666Y-61547333D01*
X71175523Y-61594952D01*
X71270761Y-61690190D01*
X71318380Y-61833047D01*
X71318380Y-61928285D01*
X70413619Y-61118761D02*
X70366000Y-61071142D01*
X70318380Y-60975904D01*
X70318380Y-60737809D01*
X70366000Y-60642571D01*
X70413619Y-60594952D01*
X70508857Y-60547333D01*
X70604095Y-60547333D01*
X70746952Y-60594952D01*
X71318380Y-61166380D01*
X71318380Y-60547333D01*
X67230666Y-49744380D02*
X67230666Y-50458666D01*
X67183047Y-50601523D01*
X67087809Y-50696761D01*
X66944952Y-50744380D01*
X66849714Y-50744380D01*
X68230666Y-50744380D02*
X67659238Y-50744380D01*
X67944952Y-50744380D02*
X67944952Y-49744380D01*
X67849714Y-49887238D01*
X67754476Y-49982476D01*
X67659238Y-50030095D01*
X144867333Y-55983142D02*
X144819714Y-56030761D01*
X144676857Y-56078380D01*
X144581619Y-56078380D01*
X144438761Y-56030761D01*
X144343523Y-55935523D01*
X144295904Y-55840285D01*
X144248285Y-55649809D01*
X144248285Y-55506952D01*
X144295904Y-55316476D01*
X144343523Y-55221238D01*
X144438761Y-55126000D01*
X144581619Y-55078380D01*
X144676857Y-55078380D01*
X144819714Y-55126000D01*
X144867333Y-55173619D01*
X145438761Y-55506952D02*
X145343523Y-55459333D01*
X145295904Y-55411714D01*
X145248285Y-55316476D01*
X145248285Y-55268857D01*
X145295904Y-55173619D01*
X145343523Y-55126000D01*
X145438761Y-55078380D01*
X145629238Y-55078380D01*
X145724476Y-55126000D01*
X145772095Y-55173619D01*
X145819714Y-55268857D01*
X145819714Y-55316476D01*
X145772095Y-55411714D01*
X145724476Y-55459333D01*
X145629238Y-55506952D01*
X145438761Y-55506952D01*
X145343523Y-55554571D01*
X145295904Y-55602190D01*
X145248285Y-55697428D01*
X145248285Y-55887904D01*
X145295904Y-55983142D01*
X145343523Y-56030761D01*
X145438761Y-56078380D01*
X145629238Y-56078380D01*
X145724476Y-56030761D01*
X145772095Y-55983142D01*
X145819714Y-55887904D01*
X145819714Y-55697428D01*
X145772095Y-55602190D01*
X145724476Y-55554571D01*
X145629238Y-55506952D01*
X102703333Y-62841142D02*
X102655714Y-62888761D01*
X102512857Y-62936380D01*
X102417619Y-62936380D01*
X102274761Y-62888761D01*
X102179523Y-62793523D01*
X102131904Y-62698285D01*
X102084285Y-62507809D01*
X102084285Y-62364952D01*
X102131904Y-62174476D01*
X102179523Y-62079238D01*
X102274761Y-61984000D01*
X102417619Y-61936380D01*
X102512857Y-61936380D01*
X102655714Y-61984000D01*
X102703333Y-62031619D01*
X103036666Y-61936380D02*
X103703333Y-61936380D01*
X103274761Y-62936380D01*
X138517333Y-55729142D02*
X138469714Y-55776761D01*
X138326857Y-55824380D01*
X138231619Y-55824380D01*
X138088761Y-55776761D01*
X137993523Y-55681523D01*
X137945904Y-55586285D01*
X137898285Y-55395809D01*
X137898285Y-55252952D01*
X137945904Y-55062476D01*
X137993523Y-54967238D01*
X138088761Y-54872000D01*
X138231619Y-54824380D01*
X138326857Y-54824380D01*
X138469714Y-54872000D01*
X138517333Y-54919619D01*
X139374476Y-54824380D02*
X139184000Y-54824380D01*
X139088761Y-54872000D01*
X139041142Y-54919619D01*
X138945904Y-55062476D01*
X138898285Y-55252952D01*
X138898285Y-55633904D01*
X138945904Y-55729142D01*
X138993523Y-55776761D01*
X139088761Y-55824380D01*
X139279238Y-55824380D01*
X139374476Y-55776761D01*
X139422095Y-55729142D01*
X139469714Y-55633904D01*
X139469714Y-55395809D01*
X139422095Y-55300571D01*
X139374476Y-55252952D01*
X139279238Y-55205333D01*
X139088761Y-55205333D01*
X138993523Y-55252952D01*
X138945904Y-55300571D01*
X138898285Y-55395809D01*
X139025333Y-62841142D02*
X138977714Y-62888761D01*
X138834857Y-62936380D01*
X138739619Y-62936380D01*
X138596761Y-62888761D01*
X138501523Y-62793523D01*
X138453904Y-62698285D01*
X138406285Y-62507809D01*
X138406285Y-62364952D01*
X138453904Y-62174476D01*
X138501523Y-62079238D01*
X138596761Y-61984000D01*
X138739619Y-61936380D01*
X138834857Y-61936380D01*
X138977714Y-61984000D01*
X139025333Y-62031619D01*
X139930095Y-61936380D02*
X139453904Y-61936380D01*
X139406285Y-62412571D01*
X139453904Y-62364952D01*
X139549142Y-62317333D01*
X139787238Y-62317333D01*
X139882476Y-62364952D01*
X139930095Y-62412571D01*
X139977714Y-62507809D01*
X139977714Y-62745904D01*
X139930095Y-62841142D01*
X139882476Y-62888761D01*
X139787238Y-62936380D01*
X139549142Y-62936380D01*
X139453904Y-62888761D01*
X139406285Y-62841142D01*
X103989142Y-52236666D02*
X104036761Y-52284285D01*
X104084380Y-52427142D01*
X104084380Y-52522380D01*
X104036761Y-52665238D01*
X103941523Y-52760476D01*
X103846285Y-52808095D01*
X103655809Y-52855714D01*
X103512952Y-52855714D01*
X103322476Y-52808095D01*
X103227238Y-52760476D01*
X103132000Y-52665238D01*
X103084380Y-52522380D01*
X103084380Y-52427142D01*
X103132000Y-52284285D01*
X103179619Y-52236666D01*
X103417714Y-51379523D02*
X104084380Y-51379523D01*
X103036761Y-51617619D02*
X103751047Y-51855714D01*
X103751047Y-51236666D01*
X84939142Y-61126666D02*
X84986761Y-61174285D01*
X85034380Y-61317142D01*
X85034380Y-61412380D01*
X84986761Y-61555238D01*
X84891523Y-61650476D01*
X84796285Y-61698095D01*
X84605809Y-61745714D01*
X84462952Y-61745714D01*
X84272476Y-61698095D01*
X84177238Y-61650476D01*
X84082000Y-61555238D01*
X84034380Y-61412380D01*
X84034380Y-61317142D01*
X84082000Y-61174285D01*
X84129619Y-61126666D01*
X84034380Y-60793333D02*
X84034380Y-60174285D01*
X84415333Y-60507619D01*
X84415333Y-60364761D01*
X84462952Y-60269523D01*
X84510571Y-60221904D01*
X84605809Y-60174285D01*
X84843904Y-60174285D01*
X84939142Y-60221904D01*
X84986761Y-60269523D01*
X85034380Y-60364761D01*
X85034380Y-60650476D01*
X84986761Y-60745714D01*
X84939142Y-60793333D01*
X79097142Y-60618666D02*
X79144761Y-60666285D01*
X79192380Y-60809142D01*
X79192380Y-60904380D01*
X79144761Y-61047238D01*
X79049523Y-61142476D01*
X78954285Y-61190095D01*
X78763809Y-61237714D01*
X78620952Y-61237714D01*
X78430476Y-61190095D01*
X78335238Y-61142476D01*
X78240000Y-61047238D01*
X78192380Y-60904380D01*
X78192380Y-60809142D01*
X78240000Y-60666285D01*
X78287619Y-60618666D01*
X78287619Y-60237714D02*
X78240000Y-60190095D01*
X78192380Y-60094857D01*
X78192380Y-59856761D01*
X78240000Y-59761523D01*
X78287619Y-59713904D01*
X78382857Y-59666285D01*
X78478095Y-59666285D01*
X78620952Y-59713904D01*
X79192380Y-60285333D01*
X79192380Y-59666285D01*
X78827333Y-50903142D02*
X78779714Y-50950761D01*
X78636857Y-50998380D01*
X78541619Y-50998380D01*
X78398761Y-50950761D01*
X78303523Y-50855523D01*
X78255904Y-50760285D01*
X78208285Y-50569809D01*
X78208285Y-50426952D01*
X78255904Y-50236476D01*
X78303523Y-50141238D01*
X78398761Y-50046000D01*
X78541619Y-49998380D01*
X78636857Y-49998380D01*
X78779714Y-50046000D01*
X78827333Y-50093619D01*
X79779714Y-50998380D02*
X79208285Y-50998380D01*
X79494000Y-50998380D02*
X79494000Y-49998380D01*
X79398761Y-50141238D01*
X79303523Y-50236476D01*
X79208285Y-50284095D01*
M02*
